<svg width="722" height="548" viewBox="0 0 722 548" fill="none" xmlns="http://www.w3.org/2000/svg">
    <g clip-path="url(#clip0)">
        <path d="M386.437 371.504C386.437 371.504 401.771 475.122 492.216 509.661H125.825C216.27 475.122 231.604 371.504 231.604 371.504H386.437Z" fill="#E0E0E0"/>
        <path d="M493.831 509.639H123.983V531.524H493.831V509.639Z" fill="url(#paint0_linear)"/>
        <path d="M492.216 509.639H125.825V526.519H492.216V509.639Z" fill="#F5F5F5"/>
        <path d="M611.42 0H8.05895C5.89671 0.0232736 3.83206 0.904603 2.31825 2.4505C0.804445 3.99641 -0.0347945 6.08054 -0.0152238 8.24535V391.757C-0.0336226 393.757 0.341572 395.74 1.08894 397.595C1.8363 399.449 2.9412 401.138 4.34053 402.565C5.73987 403.992 7.40623 405.129 9.24448 405.911C11.0827 406.693 13.0568 407.105 15.0541 407.124H604.432C606.429 407.105 608.404 406.693 610.242 405.911C612.08 405.129 613.746 403.992 615.146 402.565C616.545 401.138 617.65 399.449 618.397 397.595C619.145 395.74 619.52 393.757 619.501 391.757V8.24535C619.521 6.07928 618.681 3.99404 617.165 2.44793C615.65 0.901819 613.583 0.0213394 611.42 0V0Z" fill="url(#paint1_linear)"/>
        <path d="M611.406 343.88H6.62817V16.792C6.6301 15.754 6.83635 14.7265 7.23513 13.7683C7.63391 12.8101 8.21741 11.9399 8.95227 11.2076C9.68713 10.4753 10.5589 9.89517 11.5179 9.50038C12.4768 9.10558 13.504 8.90387 14.5409 8.90677H603.508C605.599 8.90482 607.606 9.73425 609.087 11.2128C610.568 12.6914 611.402 14.6981 611.406 16.792V343.88Z" fill="#F5F5F5"/>
        <path d="M596.689 399.135H21.3451C17.4517 399.135 13.7177 397.587 10.9646 394.831C8.21147 392.074 6.66479 388.336 6.66479 384.438V343.88H611.406V384.401C611.411 386.337 611.033 388.255 610.295 390.045C609.557 391.835 608.474 393.461 607.106 394.831C605.738 396.2 604.114 397.285 602.326 398.024C600.539 398.762 598.623 399.14 596.689 399.135V399.135Z" fill="#EBEBEB"/>
        <path d="M584.541 50.5009H37.2585V306.452H584.541V50.5009Z" fill="#2F3759"/>
        <path d="M584.541 36.0385H36.5247V58.5846H584.541V36.0385Z" fill="#E0E0E0"/>
        <path d="M48.445 54.1753C52.0935 54.1753 55.0512 51.2142 55.0512 47.5614C55.0512 43.9087 52.0935 40.9475 48.445 40.9475C44.7965 40.9475 41.8389 43.9087 41.8389 47.5614C41.8389 51.2142 44.7965 54.1753 48.445 54.1753Z" fill="#FF5252"/>
        <path d="M63.8593 54.1753C67.5078 54.1753 70.4655 51.2142 70.4655 47.5614C70.4655 43.9087 67.5078 40.9475 63.8593 40.9475C60.2108 40.9475 57.2532 43.9087 57.2532 47.5614C57.2532 51.2142 60.2108 54.1753 63.8593 54.1753Z" fill="#FFFF00"/>
        <path d="M79.2736 54.1753C82.9221 54.1753 85.8798 51.2142 85.8798 47.5614C85.8798 43.9087 82.9221 40.9475 79.2736 40.9475C75.6252 40.9475 72.6675 43.9087 72.6675 47.5614C72.6675 51.2142 75.6252 54.1753 79.2736 54.1753Z" fill="#69F0AE"/>
        <path d="M303.883 79.2421L204.791 258.714H402.975L303.883 79.2421Z" fill="url(#paint2_linear)"/>
        <path d="M303.883 93.0652L216.748 251.799H391.018L303.883 93.0652Z" fill="#EBEBEB"/>
        <path d="M303.882 245.92C309.761 245.92 314.526 241.149 314.526 235.264C314.526 229.379 309.761 224.609 303.882 224.609C298.004 224.609 293.239 229.379 293.239 235.264C293.239 241.149 298.004 245.92 303.882 245.92Z" fill="url(#paint3_linear)"/>
        <path d="M303.882 244.083C308.747 244.083 312.691 240.135 312.691 235.264C312.691 230.394 308.747 226.446 303.882 226.446C299.018 226.446 295.074 230.394 295.074 235.264C295.074 240.135 299.018 244.083 303.882 244.083Z" fill="#2F3759"/>
        <path d="M306.818 154.795H300.946V217.995H306.818V154.795Z" fill="url(#paint4_linear)"/>
        <path d="M305.717 155.163H302.047V216.892H305.717V155.163Z" fill="#2F3759"/>
        <path d="M714.235 217.818L545.316 218.054C541.262 218.06 537.98 221.355 537.986 225.413L538.425 540.625C538.431 544.684 541.722 547.969 545.776 547.963L714.695 547.727C718.749 547.722 722.03 544.427 722.025 540.368L721.585 225.157C721.579 221.098 718.288 217.812 714.235 217.818Z" fill="url(#paint5_linear)"/>
        <path d="M710.012 221.234L549.549 221.458C545.495 221.464 542.213 224.759 542.219 228.817L542.636 528.023C542.642 532.082 545.933 535.367 549.986 535.362L710.449 535.137C714.503 535.132 717.785 531.837 717.779 527.778L717.362 228.572C717.356 224.514 714.066 221.228 710.012 221.234Z" fill="#EBEBEB"/>
        <path d="M697.608 243.445L562.014 243.634L562.37 499.086L697.965 498.896L697.608 243.445Z" fill="#2F3759"/>
        <path d="M630.211 528.217C636.183 528.208 641.017 523.355 641.008 517.377C641 511.398 636.152 506.559 630.181 506.567C624.21 506.575 619.376 511.429 619.384 517.407C619.393 523.385 624.24 528.225 630.211 528.217Z" fill="#DBDBDB"/>
        <path d="M608.859 234.787C610.055 234.787 611.024 233.816 611.024 232.619C611.024 231.422 610.055 230.451 608.859 230.451C607.663 230.451 606.693 231.422 606.693 232.619C606.693 233.816 607.663 234.787 608.859 234.787Z" fill="#DBDBDB"/>
        <path d="M651.398 229.973L620.085 230.017C619.477 230.018 618.985 230.512 618.985 231.121L618.987 232.164C618.988 232.773 619.481 233.266 620.089 233.265L651.402 233.221C652.011 233.22 652.503 232.726 652.502 232.117L652.5 231.074C652.5 230.465 652.006 229.972 651.398 229.973Z" fill="#DBDBDB"/>
        <path d="M629.984 294.577L581.92 381.631H678.047L629.984 294.577Z" fill="url(#paint6_linear)"/>
        <path d="M629.984 301.279L587.719 378.272H672.248L629.984 301.279Z" fill="#EBEBEB"/>
        <path d="M629.984 375.421C632.834 375.421 635.144 373.108 635.144 370.255C635.144 367.401 632.834 365.088 629.984 365.088C627.134 365.088 624.824 367.401 624.824 370.255C624.824 373.108 627.134 375.421 629.984 375.421Z" fill="url(#paint7_linear)"/>
        <path d="M629.984 374.532C632.343 374.532 634.256 372.617 634.256 370.255C634.256 367.892 632.343 365.978 629.984 365.978C627.625 365.978 625.712 367.892 625.712 370.255C625.712 372.617 627.625 374.532 629.984 374.532Z" fill="#2F3759"/>
        <path d="M631.408 331.225H628.56V361.877H631.408V331.225Z" fill="url(#paint8_linear)"/>
        <path d="M630.879 331.401H629.096V361.34H630.879V331.401Z" fill="#2F3759"/>
    </g>
    <defs>
        <linearGradient id="paint0_linear" x1="308.911" y1="531.524" x2="308.911" y2="509.639" gradientUnits="userSpaceOnUse">
            <stop stop-color="#808080" stop-opacity="0.25"/>
            <stop offset="0.54" stop-color="#808080" stop-opacity="0.12"/>
            <stop offset="1" stop-color="#808080" stop-opacity="0.1"/>
        </linearGradient>
        <linearGradient id="paint1_linear" x1="328462" y1="256956" x2="328462" y2="31409.6" gradientUnits="userSpaceOnUse">
            <stop stop-color="#808080" stop-opacity="0.25"/>
            <stop offset="0.54" stop-color="#808080" stop-opacity="0.12"/>
            <stop offset="1" stop-color="#808080" stop-opacity="0.1"/>
        </linearGradient>
        <linearGradient id="paint2_linear" x1="303.883" y1="258.714" x2="303.883" y2="79.2421" gradientUnits="userSpaceOnUse">
            <stop stop-opacity="0.12"/>
            <stop offset="0.55" stop-opacity="0.09"/>
            <stop offset="1" stop-opacity="0.02"/>
        </linearGradient>
        <linearGradient id="paint3_linear" x1="9105.84" y1="7356.29" x2="9105.84" y2="6738.26" gradientUnits="userSpaceOnUse">
            <stop stop-color="#808080" stop-opacity="0.25"/>
            <stop offset="0.54" stop-color="#808080" stop-opacity="0.12"/>
            <stop offset="1" stop-color="#808080" stop-opacity="0.1"/>
        </linearGradient>
        <linearGradient id="paint4_linear" x1="2732.01" y1="18902.4" x2="2732.01" y2="13467.2" gradientUnits="userSpaceOnUse">
            <stop stop-color="#808080" stop-opacity="0.25"/>
            <stop offset="0.54" stop-color="#808080" stop-opacity="0.12"/>
            <stop offset="1" stop-color="#808080" stop-opacity="0.1"/>
        </linearGradient>
        <linearGradient id="paint5_linear" x1="630.242" y1="550.117" x2="629.779" y2="218.993" gradientUnits="userSpaceOnUse">
            <stop offset="0.01" stop-color="#808080" stop-opacity="0.25"/>
            <stop offset="0.54" stop-color="#808080" stop-opacity="0.12"/>
            <stop offset="1" stop-color="#808080" stop-opacity="0.1"/>
        </linearGradient>
        <linearGradient id="paint6_linear" x1="83084.6" y1="45502.5" x2="83084.6" y2="35190.1" gradientUnits="userSpaceOnUse">
            <stop stop-opacity="0.12"/>
            <stop offset="0.55" stop-opacity="0.09"/>
            <stop offset="1" stop-opacity="0.02"/>
        </linearGradient>
        <linearGradient id="paint7_linear" x1="9482.44" y1="5643.5" x2="9482.44" y2="5498.22" gradientUnits="userSpaceOnUse">
            <stop stop-color="#808080" stop-opacity="0.25"/>
            <stop offset="0.54" stop-color="#808080" stop-opacity="0.12"/>
            <stop offset="1" stop-color="#808080" stop-opacity="0.1"/>
        </linearGradient>
        <linearGradient id="paint8_linear" x1="3072.88" y1="15425.1" x2="3072.88" y2="14146.6" gradientUnits="userSpaceOnUse">
            <stop stop-color="#808080" stop-opacity="0.25"/>
            <stop offset="0.54" stop-color="#808080" stop-opacity="0.12"/>
            <stop offset="1" stop-color="#808080" stop-opacity="0.1"/>
        </linearGradient>
        <clipPath id="clip0">
            <rect width="722" height="548" fill="white"/>
        </clipPath>
    </defs>
</svg>
