<svg width="785" height="628" viewBox="0 0 785 628" fill="none" xmlns="http://www.w3.org/2000/svg">
    <g clip-path="url(#clip0)">
        <path opacity="0.1" d="M225.508 107.704H166.623C163.227 107.704 160.473 110.461 160.473 113.86V123.09C160.473 126.489 163.227 129.245 166.623 129.245H225.508C228.905 129.245 231.658 126.489 231.658 123.09V113.86C231.658 110.461 228.905 107.704 225.508 107.704Z" fill="#FFDEED"/>
        <path opacity="0.1" d="M300.005 129.245H241.12C237.723 129.245 234.969 132.001 234.969 135.401V144.631C234.969 148.03 237.723 150.786 241.12 150.786H300.005C303.401 150.786 306.155 148.03 306.155 144.631V135.401C306.155 132.001 303.401 129.245 300.005 129.245Z" fill="#FFDEED"/>
        <path opacity="0.1" d="M374.501 150.786H315.616C312.219 150.786 309.466 153.542 309.466 156.942V166.171C309.466 169.571 312.219 172.327 315.616 172.327H374.501C377.897 172.327 380.651 169.571 380.651 166.171V156.942C380.651 153.542 377.897 150.786 374.501 150.786Z" fill="#FFDEED"/>
        <path opacity="0.1" d="M225.508 75.3931H166.623C163.227 75.3931 160.473 78.1491 160.473 81.5489V90.7783C160.473 94.178 163.227 96.934 166.623 96.934H225.508C228.905 96.934 231.658 94.178 231.658 90.7783V81.5489C231.658 78.1491 228.905 75.3931 225.508 75.3931Z" fill="#FFDEED"/>
        <path opacity="0.1" d="M300.005 96.934H241.12C237.723 96.934 234.969 99.69 234.969 103.09V112.319C234.969 115.719 237.723 118.475 241.12 118.475H300.005C303.401 118.475 306.155 115.719 306.155 112.319V103.09C306.155 99.69 303.401 96.934 300.005 96.934Z" fill="#FFDEED"/>
        <path opacity="0.1" d="M374.501 118.475H315.616C312.219 118.475 309.466 121.231 309.466 124.631V133.86C309.466 137.26 312.219 140.016 315.616 140.016H374.501C377.897 140.016 380.651 137.26 380.651 133.86V124.631C380.651 121.231 377.897 118.475 374.501 118.475Z" fill="#FFDEED"/>
        <path opacity="0.1" d="M457.275 107.704H398.389C394.993 107.704 392.239 110.461 392.239 113.86V123.09C392.239 126.489 394.993 129.245 398.389 129.245H457.275C460.671 129.245 463.425 126.489 463.425 123.09V113.86C463.425 110.461 460.671 107.704 457.275 107.704Z" fill="#FFDEED"/>
        <path opacity="0.1" d="M531.771 129.245H472.885C469.489 129.245 466.735 132.001 466.735 135.401V144.631C466.735 148.03 469.489 150.786 472.885 150.786H531.771C535.167 150.786 537.921 148.03 537.921 144.631V135.401C537.921 132.001 535.167 129.245 531.771 129.245Z" fill="#FFDEED"/>
        <path opacity="0.1" d="M606.267 150.786H547.382C543.985 150.786 541.232 153.542 541.232 156.942V166.171C541.232 169.571 543.985 172.327 547.382 172.327H606.267C609.664 172.327 612.417 169.571 612.417 166.171V156.942C612.417 153.542 609.664 150.786 606.267 150.786Z" fill="#FFDEED"/>
        <path opacity="0.1" d="M457.275 75.3931H398.389C394.993 75.3931 392.239 78.1491 392.239 81.5489V90.7783C392.239 94.178 394.993 96.934 398.389 96.934H457.275C460.671 96.934 463.425 94.178 463.425 90.7783V81.5489C463.425 78.1491 460.671 75.3931 457.275 75.3931Z" fill="#FFDEED"/>
        <path opacity="0.1" d="M531.771 96.934H472.885C469.489 96.934 466.735 99.69 466.735 103.09V112.319C466.735 115.719 469.489 118.475 472.885 118.475H531.771C535.167 118.475 537.921 115.719 537.921 112.319V103.09C537.921 99.69 535.167 96.934 531.771 96.934Z" fill="#FFDEED"/>
        <path opacity="0.1" d="M606.267 118.475H547.382C543.985 118.475 541.232 121.231 541.232 124.631V133.86C541.232 137.26 543.985 140.016 547.382 140.016H606.267C609.664 140.016 612.417 137.26 612.417 133.86V124.631C612.417 121.231 609.664 118.475 606.267 118.475Z" fill="#FFDEED"/>
        <path opacity="0.1" d="M225.508 32.3113H166.623C163.227 32.3113 160.473 35.0674 160.473 38.4671V47.6965C160.473 51.0962 163.227 53.8522 166.623 53.8522H225.508C228.905 53.8522 231.658 51.0962 231.658 47.6965V38.4671C231.658 35.0674 228.905 32.3113 225.508 32.3113Z" fill="#FFDEED"/>
        <path opacity="0.1" d="M300.005 53.8522H241.12C237.723 53.8522 234.969 56.6082 234.969 60.008V69.2374C234.969 72.6371 237.723 75.3931 241.12 75.3931H300.005C303.401 75.3931 306.155 72.6371 306.155 69.2374V60.008C306.155 56.6082 303.401 53.8522 300.005 53.8522Z" fill="#FFDEED"/>
        <path opacity="0.1" d="M374.501 75.3931H315.616C312.219 75.3931 309.466 78.1491 309.466 81.5489V90.7783C309.466 94.178 312.219 96.934 315.616 96.934H374.501C377.897 96.934 380.651 94.178 380.651 90.7783V81.5489C380.651 78.1491 377.897 75.3931 374.501 75.3931Z" fill="#FFDEED"/>
        <path opacity="0.1" d="M225.508 0H166.623C163.227 0 160.473 2.75601 160.473 6.15573V15.3852C160.473 18.7849 163.227 21.5409 166.623 21.5409H225.508C228.905 21.5409 231.658 18.7849 231.658 15.3852V6.15573C231.658 2.75601 228.905 0 225.508 0Z" fill="#FFDEED"/>
        <path opacity="0.1" d="M300.005 21.5409H241.12C237.723 21.5409 234.969 24.2969 234.969 27.6966V36.9261C234.969 40.3258 237.723 43.0818 241.12 43.0818H300.005C303.401 43.0818 306.155 40.3258 306.155 36.9261V27.6966C306.155 24.2969 303.401 21.5409 300.005 21.5409Z" fill="#FFDEED"/>
        <path opacity="0.1" d="M374.501 43.0818H315.616C312.219 43.0818 309.466 45.8378 309.466 49.2375V58.467C309.466 61.8667 312.219 64.6227 315.616 64.6227H374.501C377.897 64.6227 380.651 61.8667 380.651 58.467V49.2375C380.651 45.8378 377.897 43.0818 374.501 43.0818Z" fill="#FFDEED"/>
        <path opacity="0.1" d="M457.275 32.3113H398.389C394.993 32.3113 392.239 35.0674 392.239 38.4671V47.6965C392.239 51.0962 394.993 53.8522 398.389 53.8522H457.275C460.671 53.8522 463.425 51.0962 463.425 47.6965V38.4671C463.425 35.0674 460.671 32.3113 457.275 32.3113Z" fill="#FFDEED"/>
        <path opacity="0.1" d="M531.771 53.8522H472.885C469.489 53.8522 466.735 56.6082 466.735 60.008V69.2374C466.735 72.6371 469.489 75.3931 472.885 75.3931H531.771C535.167 75.3931 537.921 72.6371 537.921 69.2374V60.008C537.921 56.6082 535.167 53.8522 531.771 53.8522Z" fill="#FFDEED"/>
        <path opacity="0.1" d="M606.267 75.3931H547.382C543.985 75.3931 541.232 78.1491 541.232 81.5489V90.7783C541.232 94.178 543.985 96.934 547.382 96.934H606.267C609.664 96.934 612.417 94.178 612.417 90.7783V81.5489C612.417 78.1491 609.664 75.3931 606.267 75.3931Z" fill="#FFDEED"/>
        <path opacity="0.1" d="M457.275 0H398.389C394.993 0 392.239 2.75601 392.239 6.15573V15.3852C392.239 18.7849 394.993 21.5409 398.389 21.5409H457.275C460.671 21.5409 463.425 18.7849 463.425 15.3852V6.15573C463.425 2.75601 460.671 0 457.275 0Z" fill="#FFDEED"/>
        <path opacity="0.1" d="M531.771 21.5409H472.885C469.489 21.5409 466.735 24.2969 466.735 27.6966V36.9261C466.735 40.3258 469.489 43.0818 472.885 43.0818H531.771C535.167 43.0818 537.921 40.3258 537.921 36.9261V27.6966C537.921 24.2969 535.167 21.5409 531.771 21.5409Z" fill="#FFDEED"/>
        <path opacity="0.1" d="M606.267 43.0818H547.382C543.985 43.0818 541.232 45.8378 541.232 49.2375V58.467C541.232 61.8667 543.985 64.6227 547.382 64.6227H606.267C609.664 64.6227 612.417 61.8667 612.417 58.467V49.2375C612.417 45.8378 609.664 43.0818 606.267 43.0818Z" fill="#FFDEED"/>
        <path opacity="0.1" d="M225.508 491.298H166.623C163.227 491.298 160.473 494.054 160.473 497.454V506.683C160.473 510.083 163.227 512.839 166.623 512.839H225.508C228.905 512.839 231.658 510.083 231.658 506.683V497.454C231.658 494.054 228.905 491.298 225.508 491.298Z" fill="#FFDEED"/>
        <path opacity="0.1" d="M300.005 512.839H241.12C237.723 512.839 234.969 515.595 234.969 518.995V528.224C234.969 531.624 237.723 534.38 241.12 534.38H300.005C303.401 534.38 306.155 531.624 306.155 528.224V518.995C306.155 515.595 303.401 512.839 300.005 512.839Z" fill="#FFDEED"/>
        <path opacity="0.1" d="M374.501 534.38H315.616C312.219 534.38 309.466 537.136 309.466 540.536V549.765C309.466 553.165 312.219 555.921 315.616 555.921H374.501C377.897 555.921 380.651 553.165 380.651 549.765V540.536C380.651 537.136 377.897 534.38 374.501 534.38Z" fill="#FFDEED"/>
        <path opacity="0.1" d="M225.508 458.987H166.623C163.227 458.987 160.473 461.743 160.473 465.143V474.372C160.473 477.772 163.227 480.528 166.623 480.528H225.508C228.905 480.528 231.658 477.772 231.658 474.372V465.143C231.658 461.743 228.905 458.987 225.508 458.987Z" fill="#FFDEED"/>
        <path opacity="0.1" d="M300.005 480.528H241.12C237.723 480.528 234.969 483.284 234.969 486.683V495.913C234.969 499.313 237.723 502.069 241.12 502.069H300.005C303.401 502.069 306.155 499.313 306.155 495.913V486.683C306.155 483.284 303.401 480.528 300.005 480.528Z" fill="#FFDEED"/>
        <path opacity="0.1" d="M374.501 502.069H315.616C312.219 502.069 309.466 504.825 309.466 508.224V517.454C309.466 520.853 312.219 523.609 315.616 523.609H374.501C377.897 523.609 380.651 520.853 380.651 517.454V508.224C380.651 504.825 377.897 502.069 374.501 502.069Z" fill="#FFDEED"/>
        <path opacity="0.1" d="M457.275 491.298H398.389C394.993 491.298 392.239 494.054 392.239 497.454V506.683C392.239 510.083 394.993 512.839 398.389 512.839H457.275C460.671 512.839 463.425 510.083 463.425 506.683V497.454C463.425 494.054 460.671 491.298 457.275 491.298Z" fill="#FFDEED"/>
        <path opacity="0.1" d="M531.771 512.839H472.885C469.489 512.839 466.735 515.595 466.735 518.995V528.224C466.735 531.624 469.489 534.38 472.885 534.38H531.771C535.167 534.38 537.921 531.624 537.921 528.224V518.995C537.921 515.595 535.167 512.839 531.771 512.839Z" fill="#FFDEED"/>
        <path opacity="0.1" d="M606.267 534.38H547.382C543.985 534.38 541.232 537.136 541.232 540.536V549.765C541.232 553.165 543.985 555.921 547.382 555.921H606.267C609.664 555.921 612.417 553.165 612.417 549.765V540.536C612.417 537.136 609.664 534.38 606.267 534.38Z" fill="#FFDEED"/>
        <path opacity="0.1" d="M457.275 458.987H398.389C394.993 458.987 392.239 461.743 392.239 465.143V474.372C392.239 477.772 394.993 480.528 398.389 480.528H457.275C460.671 480.528 463.425 477.772 463.425 474.372V465.143C463.425 461.743 460.671 458.987 457.275 458.987Z" fill="#FFDEED"/>
        <path opacity="0.1" d="M531.771 480.528H472.885C469.489 480.528 466.735 483.284 466.735 486.683V495.913C466.735 499.313 469.489 502.069 472.885 502.069H531.771C535.167 502.069 537.921 499.313 537.921 495.913V486.683C537.921 483.284 535.167 480.528 531.771 480.528Z" fill="#FFDEED"/>
        <path opacity="0.1" d="M606.267 502.069H547.382C543.985 502.069 541.232 504.825 541.232 508.224V517.454C541.232 520.853 543.985 523.609 547.382 523.609H606.267C609.664 523.609 612.417 520.853 612.417 517.454V508.224C612.417 504.825 609.664 502.069 606.267 502.069Z" fill="#FFDEED"/>
        <path opacity="0.1" d="M225.508 415.905H166.623C163.227 415.905 160.473 418.661 160.473 422.061V431.29C160.473 434.69 163.227 437.446 166.623 437.446H225.508C228.905 437.446 231.658 434.69 231.658 431.29V422.061C231.658 418.661 228.905 415.905 225.508 415.905Z" fill="#FFDEED"/>
        <path opacity="0.1" d="M300.005 437.446H241.12C237.723 437.446 234.969 440.202 234.969 443.602V452.831C234.969 456.231 237.723 458.987 241.12 458.987H300.005C303.401 458.987 306.155 456.231 306.155 452.831V443.602C306.155 440.202 303.401 437.446 300.005 437.446Z" fill="#FFDEED"/>
        <path opacity="0.1" d="M374.501 458.987H315.616C312.219 458.987 309.466 461.743 309.466 465.143V474.372C309.466 477.772 312.219 480.528 315.616 480.528H374.501C377.897 480.528 380.651 477.772 380.651 474.372V465.143C380.651 461.743 377.897 458.987 374.501 458.987Z" fill="#FFDEED"/>
        <path opacity="0.1" d="M225.508 383.594H166.623C163.227 383.594 160.473 386.35 160.473 389.749V398.979C160.473 402.379 163.227 405.135 166.623 405.135H225.508C228.905 405.135 231.658 402.379 231.658 398.979V389.749C231.658 386.35 228.905 383.594 225.508 383.594Z" fill="#FFDEED"/>
        <path opacity="0.1" d="M300.005 405.135H241.12C237.723 405.135 234.969 407.891 234.969 411.29V420.52C234.969 423.919 237.723 426.675 241.12 426.675H300.005C303.401 426.675 306.155 423.919 306.155 420.52V411.29C306.155 407.891 303.401 405.135 300.005 405.135Z" fill="#FFDEED"/>
        <path opacity="0.1" d="M374.501 426.675H315.616C312.219 426.675 309.466 429.431 309.466 432.831V442.061C309.466 445.46 312.219 448.216 315.616 448.216H374.501C377.897 448.216 380.651 445.46 380.651 442.061V432.831C380.651 429.431 377.897 426.675 374.501 426.675Z" fill="#FFDEED"/>
        <path opacity="0.1" d="M457.275 415.905H398.389C394.993 415.905 392.239 418.661 392.239 422.061V431.29C392.239 434.69 394.993 437.446 398.389 437.446H457.275C460.671 437.446 463.425 434.69 463.425 431.29V422.061C463.425 418.661 460.671 415.905 457.275 415.905Z" fill="#FFDEED"/>
        <path opacity="0.1" d="M531.771 437.446H472.885C469.489 437.446 466.735 440.202 466.735 443.602V452.831C466.735 456.231 469.489 458.987 472.885 458.987H531.771C535.167 458.987 537.921 456.231 537.921 452.831V443.602C537.921 440.202 535.167 437.446 531.771 437.446Z" fill="#FFDEED"/>
        <path opacity="0.1" d="M606.267 458.987H547.382C543.985 458.987 541.232 461.743 541.232 465.143V474.372C541.232 477.772 543.985 480.528 547.382 480.528H606.267C609.664 480.528 612.417 477.772 612.417 474.372V465.143C612.417 461.743 609.664 458.987 606.267 458.987Z" fill="#FFDEED"/>
        <path opacity="0.1" d="M457.275 383.594H398.389C394.993 383.594 392.239 386.35 392.239 389.749V398.979C392.239 402.379 394.993 405.135 398.389 405.135H457.275C460.671 405.135 463.425 402.379 463.425 398.979V389.749C463.425 386.35 460.671 383.594 457.275 383.594Z" fill="#FFDEED"/>
        <path opacity="0.1" d="M531.771 405.135H472.885C469.489 405.135 466.735 407.891 466.735 411.29V420.52C466.735 423.919 469.489 426.675 472.885 426.675H531.771C535.167 426.675 537.921 423.919 537.921 420.52V411.29C537.921 407.891 535.167 405.135 531.771 405.135Z" fill="#FFDEED"/>
        <path opacity="0.1" d="M606.267 426.675H547.382C543.985 426.675 541.232 429.431 541.232 432.831V442.061C541.232 445.46 543.985 448.216 547.382 448.216H606.267C609.664 448.216 612.417 445.46 612.417 442.061V432.831C612.417 429.431 609.664 426.675 606.267 426.675Z" fill="#FFDEED"/>
        <path opacity="0.1" d="M399.275 628C599.734 628 762.237 614.647 762.237 598.174C762.237 581.702 599.734 568.348 399.275 568.348C198.816 568.348 36.3127 581.702 36.3127 598.174C36.3127 614.647 198.816 628 399.275 628Z" fill="#FFDEED"/>
        <path d="M70.0679 154.763C104.295 169.61 123.962 200.33 123.962 200.33C123.962 200.33 88.1291 206.958 53.8939 192.12C19.6587 177.282 0 146.553 0 146.553C0 146.553 35.8327 139.916 70.0679 154.763Z" fill="#FFDEED"/>
        <path d="M175.107 97.7625C185.694 80.3641 203.722 72.0792 203.722 72.0792C203.722 72.0792 204.55 91.9134 193.996 109.262C183.443 126.611 165.373 134.887 165.373 134.887C165.373 134.887 164.512 115.062 175.107 97.7625Z" fill="#FFDEED"/>
        <path d="M97.2839 116.379C104.858 143.437 125.733 161.25 125.733 161.25C125.733 161.25 134.333 135.177 126.76 108.11C119.186 81.0435 98.302 63.2391 98.302 63.2391C98.302 63.2391 89.7018 89.3118 97.2839 116.379Z" fill="#46455B"/>
        <path d="M695.845 115.161H104.361C101.065 115.161 98.3931 117.835 98.3931 121.134V411.589C98.3931 414.888 101.065 417.562 104.361 417.562H695.845C699.141 417.562 701.813 414.888 701.813 411.589V121.134C701.813 117.835 699.141 115.161 695.845 115.161Z" fill="#3F3D56"/>
        <path opacity="0.1" d="M98.3931 399.335H701.813V411.589C701.813 413.173 701.184 414.692 700.065 415.812C698.945 416.933 697.427 417.562 695.845 417.562H104.361C102.778 417.562 101.26 416.933 100.141 415.812C99.0218 414.692 98.3931 413.173 98.3931 411.589V399.335Z" fill="black"/>
        <path d="M199.791 376.966H159.231C158.089 376.966 157.162 377.893 157.162 379.037V397.264C157.162 398.408 158.089 399.335 159.231 399.335H199.791C200.933 399.335 201.86 398.408 201.86 397.264V379.037C201.86 377.893 200.933 376.966 199.791 376.966Z" fill="#FFDEED"/>
        <path d="M243.247 396.021H215.931C215.017 396.021 214.276 396.763 214.276 397.678C214.276 398.593 215.017 399.335 215.931 399.335H243.247C244.161 399.335 244.902 398.593 244.902 397.678C244.902 396.763 244.161 396.021 243.247 396.021Z" fill="#FFDEED"/>
        <path d="M187.085 174.299C208.929 178.334 231.212 174.299 252.964 171.565L319.076 163.28C321.749 162.94 325.64 161.341 327.212 164.614C328.098 166.445 327.502 170.413 327.568 172.518C327.742 178.317 327.726 184.117 327.568 189.916C327.27 201.001 326.459 212.062 325.424 223.097C323.413 244.696 320.566 266.179 319.142 287.861C318.414 298.896 318.049 309.965 318.372 321.001C318.447 323.635 318.554 326.27 318.712 328.896C318.885 331.837 320.201 336.204 316.998 338.167C315.169 339.294 311.568 339.236 309.474 339.567C306.163 340.089 302.852 340.504 299.475 340.843C277.217 343.072 254.67 342.144 232.329 342.011L164.869 341.663L148.413 341.572C146.923 341.572 141.551 342.467 140.632 340.694C140.243 339.94 141.278 336.411 141.46 335.466C141.714 333.909 141.99 332.354 142.288 330.802C144.208 319.907 146.476 309.079 148.761 298.259C153.669 275.061 158.694 251.747 160.713 228.052C161.715 216.163 161.053 204.166 162.278 192.302C162.849 186.793 163.528 174.498 170.853 174.009C177.061 173.595 183.451 174.009 189.676 174.009C190.005 174.009 190.321 173.878 190.554 173.645C190.787 173.412 190.917 173.096 190.917 172.766C190.917 172.437 190.787 172.121 190.554 171.888C190.321 171.654 190.005 171.524 189.676 171.524C183.799 171.524 177.914 171.366 172.037 171.482C168.13 171.557 165.415 172.485 163.552 176.08C158.793 185.31 159.281 197.621 159.132 207.696C158.776 231.813 155.076 255.417 150.259 279.004C147.834 290.877 145.218 302.708 142.809 314.588C141.675 320.263 140.591 325.955 139.598 331.663C139.134 334.381 136.792 340.371 138.853 342.865C140.914 345.359 147.254 344.016 150.093 344.033L169.843 344.149L207.687 344.364C232.139 344.505 256.673 345.193 281.116 344.472C292.787 344.124 305.12 343.644 316.485 340.852C319.87 340.023 321.501 338.465 321.633 334.853C321.832 329.253 320.922 323.478 320.806 317.852C319.978 269.717 331.277 222.252 330.118 174.1C330.043 170.828 331.277 162.576 327.701 160.596C326.095 159.701 324.009 160.19 322.32 160.389C319.092 160.761 315.872 161.217 312.644 161.598L270.719 166.834C257.318 168.491 243.926 170.281 230.5 171.805C216.287 173.462 201.935 174.448 187.772 171.805C186.208 171.515 185.537 173.91 187.11 174.2L187.085 174.299Z" fill="#FFDEED"/>
        <path d="M160.73 203.586L326.128 195.467C327.725 195.384 327.734 192.899 326.128 192.982L160.73 201.101C159.14 201.175 159.132 203.661 160.73 203.586Z" fill="#FFDEED"/>
        <path d="M211.685 183.098C211.223 183.588 210.887 184.185 210.707 184.835C210.527 185.485 210.508 186.169 210.653 186.828C210.797 187.487 211.1 188.101 211.535 188.616C211.971 189.131 212.525 189.532 213.15 189.784C215.377 190.803 217.993 189.949 220.203 189.394C223.514 188.566 226.824 187.828 230.226 187.224C237.631 185.912 245.131 185.213 252.65 185.136C256.077 185.094 259.479 185.252 262.905 185.401C265.389 185.5 268.062 185.699 270.165 184.158C272.565 182.402 273.343 178.972 270.992 176.834C267.682 173.81 260.546 175.567 256.722 175.881C242.846 177.035 229.06 179.094 215.451 182.045C213.895 182.377 214.549 184.779 216.114 184.44C225.092 182.501 234.139 180.944 243.255 179.767C247.736 179.215 252.225 178.748 256.722 178.367C258.841 178.193 260.96 178.036 263.079 177.911C263.907 177.862 264.784 177.77 265.629 177.795C268.253 177.853 268.559 177.381 266.986 180.554C265.587 183.363 266.034 183.04 263.609 182.949C262.583 182.949 261.556 182.833 260.53 182.783C258.427 182.694 256.325 182.648 254.223 182.642C249.747 182.642 245.283 182.857 240.83 183.288C237.055 183.653 233.289 184.166 229.556 184.829C227.222 185.243 224.904 185.724 222.595 186.254C221.577 186.494 220.55 186.743 219.532 187C219.044 187.132 218.547 187.248 218.059 187.373C216.249 188.002 214.706 187.174 213.432 184.887C214.541 183.736 212.794 181.971 211.677 183.131L211.685 183.098Z" fill="#FFDEED"/>
        <path d="M241.666 218.458C229.688 217.994 216.751 221.233 208.863 230.885C202.688 238.433 199.17 251.382 205.709 259.883C212.736 268.996 228.149 267.389 237.444 263.503C247.278 259.361 258.038 250.819 260.993 240.131C264.677 226.784 252.716 216.693 240.259 216.544C238.661 216.544 238.661 219.029 240.259 219.029C247.361 219.112 254.33 222.161 257.641 228.781C261.109 235.757 258.121 243.081 253.502 248.665C246.102 257.555 234.531 264.257 222.744 264.067C215.667 263.959 207.844 261.531 205.651 254.058C203.847 248.002 205.221 241.382 208.366 236.014C215.17 224.415 229.018 220.488 241.715 220.985C243.313 221.043 243.313 218.557 241.715 218.499L241.666 218.458Z" fill="#FFDEED"/>
        <path d="M229.771 236.867C229.261 236.678 228.71 236.621 228.172 236.701C227.633 236.782 227.124 236.998 226.691 237.328C226.258 237.659 225.916 238.094 225.696 238.593C225.476 239.092 225.386 239.638 225.434 240.181C225.682 243.412 229.241 244.323 231.915 244.133C234.224 243.934 236.923 243.081 236.112 240.189C235.962 239.678 235.705 239.204 235.356 238.801C235.008 238.398 234.577 238.074 234.092 237.853C233.351 237.559 232.548 237.459 231.758 237.563C231.452 237.563 228.645 238.59 229.837 237.356L227.884 237.099C228.101 237.313 228.267 237.573 228.37 237.86C228.473 238.146 228.511 238.453 228.48 238.756C228.484 238.973 228.544 239.184 228.654 239.371C228.764 239.557 228.92 239.712 229.108 239.82C229.296 239.927 229.508 239.984 229.724 239.985C229.941 239.986 230.154 239.931 230.342 239.825C230.626 239.706 230.938 239.668 231.242 239.717C231.546 239.765 231.83 239.898 232.064 240.099C232.297 240.3 232.469 240.563 232.561 240.857C232.653 241.151 232.662 241.465 232.586 241.763C232.519 242.05 232.556 242.352 232.689 242.614C232.823 242.877 233.045 243.084 233.316 243.199C233.587 243.314 233.89 243.329 234.171 243.242C234.452 243.156 234.694 242.972 234.854 242.724C235.681 241.233 236.683 238.267 235.441 236.71C234.613 235.657 233.016 235.972 232.023 236.585C231.41 237.02 230.839 237.511 230.318 238.052C229.316 238.938 228.662 239.353 229.035 237.654C229.655 234.564 232.602 232.103 235.292 230.869L233.471 229.469C232.517 233.06 230.809 236.406 228.463 239.286L230.582 240.164C230.522 239.027 230.814 237.898 231.419 236.933C232.023 235.968 232.911 235.213 233.96 234.771H232.743L233.388 235.831C233.148 237.397 235.541 238.068 235.781 236.486C236.095 234.44 234.804 231.78 232.412 232.783C229.556 233.976 228.074 237.248 228.132 240.164C228.132 241.159 229.539 241.929 230.26 241.051C232.892 237.85 234.814 234.125 235.896 230.123C235.954 229.886 235.941 229.637 235.86 229.406C235.779 229.176 235.632 228.974 235.438 228.826C235.244 228.677 235.011 228.589 234.768 228.57C234.525 228.552 234.281 228.605 234.067 228.723C231.588 229.845 229.492 231.671 228.041 233.976C227.031 235.633 225.765 238.217 226.791 240.123C226.96 240.428 227.187 240.696 227.459 240.913C227.732 241.129 228.044 241.29 228.379 241.384C228.714 241.479 229.064 241.507 229.41 241.465C229.755 241.423 230.089 241.314 230.392 241.142C231.157 240.688 231.856 240.13 232.47 239.485C232.776 239.212 233.115 238.739 233.521 238.657C233.885 238.408 233.869 238.549 233.463 239.096C233.458 239.954 233.208 240.793 232.743 241.515L235.011 242.468C235.215 241.694 235.191 240.878 234.942 240.118C234.693 239.357 234.229 238.685 233.607 238.183C232.984 237.681 232.23 237.37 231.435 237.288C230.639 237.206 229.837 237.356 229.126 237.72L230.996 238.797C231.035 237.743 230.705 236.708 230.061 235.873C229.963 235.712 229.831 235.575 229.673 235.472C229.515 235.369 229.337 235.302 229.15 235.278C228.963 235.253 228.773 235.271 228.594 235.329C228.415 235.388 228.252 235.486 228.116 235.616C226.858 236.933 226.618 239.212 228.199 240.43C229.382 241.333 229.962 240.43 231.261 240.222C235.673 239.651 233.099 241.639 231.543 241.705C230.847 241.78 230.143 241.73 229.465 241.556C227.738 240.971 227.63 240.217 229.142 239.294C230.624 239.899 231.261 237.497 229.804 236.9L229.771 236.867Z" fill="#FFDEED"/>
        <path d="M227.776 241.407C228.794 244.721 224.59 245.815 222.595 246.958C221.195 247.744 219.974 248.813 219.011 250.098C216.925 252.898 216.147 256.461 215.46 259.816C215.145 261.382 217.537 262.045 217.86 260.479C218.239 258.014 218.943 255.609 219.954 253.329C221.444 250.363 223.58 249.369 226.361 247.845C229.142 246.32 231.153 243.959 230.168 240.744C229.705 239.22 227.305 239.874 227.776 241.407Z" fill="#FFDEED"/>
        <path d="M231.915 239.742C231.323 239.824 230.783 240.124 230.4 240.584C230.017 241.043 229.82 241.63 229.846 242.227C229.846 243.213 230.5 243.843 230.947 244.63C232.008 246.24 232.817 248.003 233.347 249.858C233.744 251.639 234.133 254.829 233.206 256.486C231.493 259.559 228.397 258.971 225.757 258.971C223.274 258.971 221.353 259.8 221.436 256.337C221.486 254.39 222.843 252.418 223.919 250.885L221.651 250.587C222.13 253.117 222.382 255.684 222.404 258.259C222.404 259.41 224.167 260.048 224.714 258.88C226.045 256.078 227.101 253.154 227.867 250.148L225.426 249.816L225.856 256.113C225.863 256.382 225.957 256.641 226.123 256.852C226.288 257.064 226.518 257.216 226.777 257.287C227.036 257.357 227.311 257.343 227.561 257.245C227.811 257.147 228.023 256.971 228.165 256.743C228.455 256.422 228.668 256.04 228.786 255.624C228.869 255.235 228.108 252.608 227.801 253.545L230.235 253.876L230.409 247.894L227.925 248.226C228.45 249.912 228.608 251.692 228.389 253.445C228.232 254.829 230.558 255.144 230.872 253.777L232.428 245.74L230.16 246.03C230.699 247.142 230.848 248.403 230.582 249.609C230.4 251.2 232.884 251.183 233.066 249.609C233.277 247.959 233.012 246.284 232.304 244.779C232.178 244.572 231.995 244.405 231.776 244.3C231.558 244.196 231.313 244.156 231.073 244.188C230.833 244.22 230.607 244.321 230.423 244.478C230.238 244.636 230.104 244.844 230.036 245.077L228.472 253.114L230.914 253.445C231.162 251.47 230.973 249.465 230.359 247.571C230.276 247.286 230.094 247.04 229.845 246.877C229.596 246.715 229.298 246.647 229.003 246.686C228.709 246.725 228.439 246.869 228.241 247.09C228.043 247.312 227.931 247.597 227.925 247.894L227.752 253.876C227.752 255.326 229.763 255.533 230.193 254.207L230.326 253.801C230.383 253.59 230.384 253.367 230.329 253.155C230.274 252.943 230.164 252.749 230.011 252.592C227.437 249.792 226.916 254.249 226.022 255.483L228.339 256.113L227.909 249.816C227.818 248.474 225.831 248.06 225.467 249.485C224.767 252.287 223.797 255.015 222.57 257.629L224.888 258.259C224.861 255.461 224.584 252.672 224.06 249.924C223.845 248.781 222.346 248.83 221.792 249.626C220.136 252.012 217.272 257.223 219.483 260.081C221.411 262.567 227.478 261.606 230.069 261.448C234.158 261.216 235.64 258.623 236.087 254.763C236.3 252.914 236.196 251.042 235.781 249.228C235.557 248.251 233.297 242.053 232.619 242.178C234.191 241.888 233.521 239.485 231.956 239.775L231.915 239.742Z" fill="#FFDEED"/>
        <path d="M227.106 245.326L220.327 254.282L222.471 255.533L227.437 248.342L225.169 247.381L222.694 256.834C222.627 257.121 222.664 257.422 222.798 257.685C222.931 257.947 223.153 258.154 223.424 258.269C223.695 258.384 223.998 258.399 224.28 258.313C224.561 258.226 224.803 258.043 224.962 257.795C226.088 255.927 227.353 254.146 228.745 252.468L226.676 251.258C226.12 253.398 225.048 255.37 223.555 257L225.633 258.209C225.76 257.064 226.064 255.946 226.535 254.895C227.172 253.462 225.152 252.194 224.391 253.636C223.691 254.949 222.891 256.206 221.999 257.397L224.267 257.695L224.772 255.334L222.504 255.036L222.868 257.107C222.928 257.316 223.041 257.505 223.195 257.656C223.35 257.808 223.542 257.917 223.751 257.972C223.961 258.027 224.181 258.027 224.39 257.971C224.6 257.915 224.791 257.806 224.946 257.654C227.045 255.48 228.728 252.938 229.912 250.156H227.776C228.338 251.192 228.732 252.311 228.944 253.47C229.242 254.961 231.22 254.406 231.377 253.139C231.733 250.364 231.915 247.569 231.923 244.771H229.44V249.982C229.44 251.333 231.65 251.73 231.882 250.314C232.046 249.057 232.46 247.845 233.099 246.751H230.922C231.446 247.598 231.732 248.571 231.75 249.568C231.75 249.897 231.88 250.214 232.113 250.447C232.346 250.68 232.662 250.811 232.991 250.811C233.32 250.811 233.636 250.68 233.869 250.447C234.102 250.214 234.233 249.897 234.233 249.568L234.547 247.911H232.155C232.395 249.377 233.306 257.637 230.069 256.668C229.523 256.536 229.366 256.569 229.597 256.759L230.334 255.185L232.064 251.515L229.746 250.885C229.895 252.592 230.053 255.028 229.026 256.486C228.199 257.671 225.649 258.143 224.35 257.447C223.492 256.835 222.758 256.064 222.189 255.177L220.492 256.834C221.866 257.836 224.093 260.297 225.864 260.438C227.214 260.545 228.348 259.427 229.233 258.532C230.592 257.127 231.651 255.46 232.347 253.633C233.043 251.806 233.36 249.856 233.281 247.903C233.281 247.573 233.15 247.257 232.917 247.024C232.684 246.791 232.369 246.66 232.039 246.66C231.71 246.66 231.394 246.791 231.161 247.024C230.928 247.257 230.798 247.573 230.798 247.903V250.736C230.798 251.066 230.928 251.382 231.161 251.615C231.394 251.848 231.71 251.979 232.039 251.979C232.369 251.979 232.684 251.848 232.917 251.615C233.15 251.382 233.281 251.066 233.281 250.736V243.785C233.281 243.455 233.15 243.139 232.917 242.906C232.684 242.673 232.369 242.542 232.039 242.542C231.71 242.542 231.394 242.673 231.161 242.906C230.928 243.139 230.798 243.455 230.798 243.785C230.793 245.451 230.649 247.114 230.367 248.756L232.809 249.087C232.615 247.108 232.523 245.119 232.536 243.13C232.532 242.833 232.421 242.546 232.224 242.323C232.027 242.1 231.757 241.955 231.462 241.915C231.167 241.875 230.868 241.942 230.618 242.104C230.369 242.267 230.186 242.513 230.102 242.799C229.73 244.381 229.275 245.939 228.836 247.488L231.104 247.19L230.93 246.527C230.814 244.945 228.331 244.937 228.447 246.527C228.474 247.198 228.649 247.854 228.96 248.449C229.44 249.46 230.938 249.104 231.228 248.151C231.7 246.594 232.122 245.036 232.495 243.462L230.053 243.13C230.04 245.119 230.131 247.108 230.326 249.087C230.45 250.363 232.503 250.91 232.759 249.419C233.09 247.548 233.264 245.652 233.281 243.752H230.798V250.703H233.281V247.869H230.798C230.944 250.995 229.859 254.053 227.776 256.386C227.454 256.753 227.105 257.097 226.733 257.414C226.146 257.977 225.608 257.894 225.136 257.157C223.961 256.668 222.744 255.409 221.717 254.671C220.691 253.934 219.284 255.392 220.012 256.37C221.916 258.905 224.755 261.73 228.29 260.512C232.006 259.195 232.511 254.158 232.23 250.844C232.139 249.742 230.491 248.996 229.92 250.222C229.093 251.971 228.265 253.71 227.437 255.467C227.147 256.08 226.609 256.925 226.692 257.654C226.965 259.518 229.225 259.212 230.616 259.104C236.004 258.698 235.152 251.051 234.531 247.207C234.324 245.931 232.47 246.13 232.139 247.207C231.876 247.963 231.739 248.758 231.733 249.56H234.216C234.126 248.135 233.728 246.747 233.049 245.492C232.938 245.306 232.781 245.153 232.593 245.047C232.405 244.94 232.193 244.884 231.977 244.884C231.761 244.884 231.549 244.94 231.361 245.047C231.173 245.153 231.016 245.306 230.905 245.492C230.165 246.771 229.666 248.175 229.432 249.634L231.915 249.966V244.754C231.915 244.425 231.784 244.109 231.551 243.876C231.319 243.643 231.003 243.512 230.673 243.512C230.344 243.512 230.028 243.643 229.796 243.876C229.563 244.109 229.432 244.425 229.432 244.754C229.424 247.552 229.241 250.347 228.886 253.122L231.327 252.791C231.046 251.436 230.57 250.13 229.912 248.913C229.801 248.728 229.644 248.575 229.456 248.468C229.268 248.362 229.056 248.306 228.84 248.306C228.624 248.306 228.412 248.362 228.224 248.468C228.036 248.575 227.879 248.728 227.768 248.913C226.689 251.508 225.136 253.879 223.191 255.906L225.268 256.453L224.904 254.381C224.714 253.28 223.158 253.246 222.636 254.083C222.225 254.706 221.946 255.407 221.816 256.142C221.687 256.878 221.709 257.632 221.883 258.358C222.09 259.535 223.58 259.41 224.151 258.657C225.043 257.468 225.843 256.214 226.543 254.903L224.399 253.644C223.827 254.882 223.437 256.196 223.24 257.546C223.091 258.64 224.391 259.783 225.318 258.756C227.097 256.807 228.386 254.461 229.076 251.913C229.382 250.786 227.826 249.717 226.998 250.703C225.476 252.53 224.092 254.468 222.86 256.502L225.128 257.463L227.652 248.043C227.719 247.756 227.682 247.455 227.549 247.193C227.415 246.93 227.193 246.723 226.922 246.608C226.651 246.493 226.348 246.478 226.067 246.565C225.785 246.651 225.544 246.835 225.384 247.082L220.418 254.282C219.491 255.616 221.618 256.768 222.562 255.533L229.316 246.585C230.276 245.309 228.124 244.1 227.172 245.326H227.106Z" fill="#FFDEED"/>
        <path d="M332.708 275.226C342.641 269.145 350.538 260.073 359.312 252.484C368.831 244.257 378.822 236.594 389.11 229.336C409.092 215.252 430.075 202.65 451.041 190.082C451.313 189.91 451.508 189.639 451.584 189.326C451.66 189.014 451.612 188.684 451.45 188.406C451.288 188.128 451.025 187.923 450.716 187.836C450.406 187.748 450.075 187.784 449.792 187.936C428.825 200.504 407.834 213.081 387.852 227.19C378.424 233.818 369.22 240.844 360.396 248.3C350.794 256.42 342.244 266.527 331.425 273.081C330.06 273.909 331.309 276.063 332.675 275.226H332.708Z" fill="#FFDEED"/>
        <path d="M483.1 151.491C472.339 152.584 460.751 155.326 454.129 164.746C448.409 172.849 448.534 186.983 453.906 195.301C460.006 204.755 472.472 205.094 482.156 202.037C491.841 198.98 501.865 193.62 501.774 182.037C501.724 175.823 499.481 169.353 497.006 163.719C494.87 158.856 491.088 154.606 485.36 155.144C483.779 155.293 483.762 157.779 485.36 157.63C493.033 156.917 495.499 166.039 497.32 171.797C498.976 177.174 500.507 183.537 497.908 188.881C495.309 194.224 489.043 196.95 483.688 198.905C477.893 201.01 471.528 202.294 465.477 200.562C453.492 197.207 450.181 182.004 453.632 171.217C457.606 158.79 471.677 155.136 483.141 153.976C484.714 153.819 484.73 151.333 483.141 151.491H483.1Z" fill="#FFDEED"/>
        <path d="M499.655 247.596C488.894 248.69 477.306 251.432 470.684 260.852C464.964 268.955 465.088 283.089 470.46 291.407C476.561 300.86 489.026 301.2 498.711 298.143C508.395 295.085 518.419 289.725 518.328 278.143C518.279 271.929 516.035 265.458 513.561 259.825C511.425 254.961 507.642 250.711 501.914 251.25C500.333 251.399 500.317 253.884 501.914 253.735C509.587 253.023 512.054 262.144 513.875 267.902C515.531 273.279 517.062 279.642 514.463 284.986C511.864 290.33 505.598 293.056 500.242 295.011C494.448 297.115 488.083 298.399 482.032 296.668C470.046 293.312 466.735 278.11 470.187 267.323C474.16 254.895 488.232 251.241 499.696 250.082C501.269 249.924 501.285 247.439 499.696 247.596H499.655Z" fill="#FFDEED"/>
        <path d="M466.868 175.691L474.706 184.639C474.862 184.789 475.053 184.896 475.262 184.95C475.47 185.004 475.69 185.003 475.898 184.947C476.106 184.891 476.297 184.782 476.45 184.631C476.604 184.48 476.716 184.291 476.776 184.084C478.431 179.726 478.117 175.21 478.506 170.629C478.935 165.893 480.122 161.258 482.024 156.901C485.842 148.062 492.317 140.635 500.548 135.65C501.914 134.821 500.664 132.667 499.298 133.504C491.183 138.395 484.672 145.554 480.567 154.1C478.557 158.259 477.163 162.688 476.428 167.248C475.6 172.625 476.354 178.259 474.367 183.421L476.445 182.866L468.647 173.934C467.588 172.733 465.841 174.498 466.893 175.691H466.868Z" fill="#FFDEED"/>
        <path d="M336.706 284.911C379.401 283.608 422.107 283.332 464.823 284.083C466.421 284.083 466.421 281.598 464.823 281.598C422.118 280.835 379.412 281.111 336.706 282.426C335.109 282.476 335.101 284.961 336.706 284.911Z" fill="#FFDEED"/>
        <path d="M473.746 260.405C488.341 266.138 502.381 273.199 515.688 281.498C517.045 282.327 518.295 280.197 516.938 279.352C503.455 270.951 489.23 263.806 474.442 258.01C472.96 257.422 472.314 259.825 473.788 260.405H473.746Z" fill="#FFDEED"/>
        <path d="M500.25 249.145C485.45 266.415 476.877 288.161 475.907 310.893C475.841 312.492 478.324 312.492 478.39 310.893C479.33 288.814 487.646 267.689 502.005 250.902C503.04 249.692 501.293 247.927 500.25 249.145Z" fill="#FFDEED"/>
        <path d="M169.198 275.889L261.714 274.68L272.35 274.539C274.262 274.539 276.174 274.472 278.086 274.464C280.776 274.464 282.589 276.701 282.539 279.435C282.415 285.235 278.773 285.027 274.005 285.235L262.508 285.757L215.691 287.82C207.307 288.192 198.913 288.648 190.528 288.938C182.963 289.17 168.577 286.701 171.937 275.682C172.401 274.149 170.009 273.495 169.537 275.019C167.881 280.438 170.812 285.939 175.53 288.781C182.226 292.807 191.05 291.44 198.441 291.109L255.919 288.499L269.875 287.878C273.451 287.712 278.426 288.441 281.712 286.776C285.569 284.829 286.248 277.099 283.814 273.843C282.564 272.186 280.809 272.037 278.848 271.962C273.699 271.763 268.46 272.103 263.303 272.169L234.647 272.55L169.164 273.379C167.567 273.379 167.567 275.864 169.164 275.864L169.198 275.889Z" fill="#FFDEED"/>
        <path d="M542.987 580.361C540.901 581.67 538.517 582.408 536.365 583.559C534.213 584.711 532.118 586.443 531.506 588.829C531.277 589.569 531.315 590.367 531.613 591.082C532.149 591.946 532.968 592.597 533.931 592.921C538.303 594.865 543.025 595.895 547.809 595.949C552.592 596.003 557.337 595.08 561.751 593.236C563.305 592.489 564.909 591.852 566.552 591.331C568.576 590.918 570.637 590.707 572.702 590.701C574.874 590.574 577.034 590.297 579.167 589.873C580.239 589.753 581.256 589.331 582.097 588.655C582.865 587.769 583.327 586.659 583.413 585.49C584.393 579.035 582.916 572.448 579.275 567.031C578.816 566.272 578.201 565.619 577.47 565.117C576.579 564.656 575.6 564.393 574.598 564.347C570.459 563.841 566.122 562.913 561.942 562.814C558.945 562.748 557.439 564.173 555.32 566.236C550.941 570.618 548.383 576.989 542.987 580.361Z" fill="#323444"/>
        <path d="M603.982 579.748C603.982 583.808 604.471 588.108 606.929 591.347C608.053 592.748 609.415 593.94 610.952 594.868C616.15 598.182 623.037 599.4 628.517 596.592C629.402 596.194 630.159 595.557 630.702 594.752C631.53 593.311 631.091 591.513 630.627 589.922L622.698 562.416C617.574 563.203 610.041 563.758 605.489 566.36C602.186 568.241 603.982 576.12 603.982 579.748Z" fill="#323444"/>
        <path d="M538.335 410.379C537.855 411.895 536.116 412.599 535.165 413.875C534.047 415.375 534.163 417.454 534.569 419.277C535.07 421.965 536.331 424.452 538.202 426.443C539.152 427.43 540.324 428.175 541.62 428.616C542.916 429.057 544.298 429.181 545.652 428.979C548.317 428.473 550.618 426.112 550.709 423.403C550.661 422.171 550.398 420.957 549.931 419.815L544.286 403.478C544.263 403.362 544.216 403.253 544.147 403.157C544.079 403.061 543.991 402.981 543.889 402.922C543.676 402.875 543.453 402.914 543.268 403.03C541.935 403.66 539.262 404.323 538.484 405.706C537.706 407.09 538.898 408.879 538.335 410.379Z" fill="#FBB3B2"/>
        <path d="M535.694 409.559C537.755 409.236 539.56 408.026 541.488 407.231C543.417 406.435 545.834 406.129 547.456 407.454C547.92 407.835 548.367 408.357 548.971 408.349C548.149 404.298 546.906 400.344 545.263 396.551C545.205 396.37 545.092 396.21 544.94 396.096C544.715 396.004 544.462 396.004 544.237 396.096L538.666 397.554C536.605 398.092 536.365 397.927 536.522 399.957C536.563 400.86 537.027 409.559 535.694 409.559Z" fill="#323444"/>
        <path d="M535.082 291.581C534.254 292.857 534.254 294.448 534.254 295.947C534.254 303.279 534.328 310.653 535.413 317.911C535.669 319.65 535.992 321.39 536.158 323.147C536.345 325.592 536.384 328.046 536.274 330.495L535.446 362.392C535.347 366.295 535.148 370.487 532.739 373.552C532.009 374.58 531.666 375.833 531.771 377.09C532.4 385.093 533.724 393.03 535.04 400.942C537.159 399.986 539.475 399.545 541.797 399.656C544.119 399.766 546.381 400.426 548.4 401.58C552.576 388.437 554.886 374.771 555.262 360.984C555.452 354.199 555.163 347.372 556.206 340.669C557.952 329.385 557.24 317.811 555.957 306.461C555.552 302.865 554.691 299.162 552.39 296.378C550.211 293.942 547.31 292.27 544.112 291.606C541.05 290.802 538.31 291.631 535.082 291.581Z" fill="#5B5583"/>
        <path opacity="0.1" d="M535.082 291.581C534.254 292.857 534.254 294.448 534.254 295.947C534.254 303.279 534.328 310.653 535.413 317.911C535.669 319.65 535.992 321.39 536.158 323.147C536.345 325.592 536.384 328.046 536.274 330.495L535.446 362.392C535.347 366.295 535.148 370.487 532.739 373.552C532.009 374.58 531.666 375.833 531.771 377.09C532.4 385.093 533.724 393.03 535.04 400.942C537.159 399.986 539.475 399.545 541.797 399.656C544.119 399.766 546.381 400.426 548.4 401.58C552.576 388.437 554.886 374.771 555.262 360.984C555.452 354.199 555.163 347.372 556.206 340.669C557.952 329.385 557.24 317.811 555.957 306.461C555.552 302.865 554.691 299.162 552.39 296.378C550.211 293.942 547.31 292.27 544.112 291.606C541.05 290.802 538.31 291.631 535.082 291.581Z" fill="black"/>
        <path d="M545.197 384.082C539.645 412.557 542.676 442.041 553.904 468.788C554.874 470.768 555.555 472.877 555.924 475.051C556.379 479.111 554.509 483.013 553.441 486.94C550.958 495.871 552.39 505.383 553.979 514.521C554.641 518.332 555.323 522.14 556.023 525.946C556.71 529.657 557.373 533.692 555.651 537.056C557.133 543.237 558.01 549.359 559.492 555.54C559.649 556.029 559.697 556.546 559.632 557.056C559.334 557.865 558.808 558.57 558.118 559.086C557.013 560.206 556.219 561.596 555.815 563.117C555.41 564.638 555.407 566.238 555.808 567.76C559.591 565.043 564.864 565.995 569.184 567.76C573.505 569.525 577.76 571.902 582.428 571.902C581.749 566.418 581.095 560.66 583.115 555.515C584.291 552.532 586.36 549.715 586.302 546.526C586.244 543.667 584.497 541.116 584.075 538.29C583.918 536.533 583.985 534.762 584.274 533.021C585.383 522.88 584.125 512.64 582.867 502.516C582.725 500.519 582.255 498.56 581.476 496.716C580.889 495.523 580.011 494.38 580.028 493.046C580.028 491.497 581.278 490.238 581.741 488.763C582.569 486.045 581.046 482.35 583.339 480.669C589.381 476.228 587.063 465.623 586.931 458.125C586.826 451.657 586.55 445.195 586.103 438.738C589.908 449.445 591.463 460.823 590.672 472.16C590.407 475.872 589.919 479.774 591.368 483.204C592.477 485.838 594.679 488.009 595.275 490.801C595.647 492.524 595.382 494.306 595.465 496.062C595.548 497.818 596.144 499.732 597.658 500.619C597.774 508.605 598.486 517.147 598.61 525.134C598.53 529.217 598.863 533.297 599.604 537.313C599.975 538.59 600.181 539.91 600.216 541.24C600.029 542.907 599.588 544.536 598.908 546.07C597.466 550.345 597.089 554.909 597.81 559.363C598.531 563.818 600.329 568.029 603.047 571.629C605 568.158 609.073 566.318 613.046 566.028C617.019 565.738 620.943 566.741 624.792 567.752C624.203 562.911 625.165 558.008 627.54 553.75C628.176 552.791 628.665 551.74 628.988 550.635C629.435 548.531 628.392 546.435 627.829 544.355C626.911 541.041 627.233 537.47 627.449 534.007C628.171 522.409 627.658 510.766 625.917 499.277C625.649 497.013 625.118 494.789 624.336 492.649C624.038 491.886 623.674 491.157 623.426 490.387C623.035 489.005 622.813 487.58 622.764 486.145L621.812 472.889C621.141 463.602 624.187 454.43 626.315 445.366C627.267 441.307 628.301 437.255 628.939 433.129C629.808 427.512 629.948 421.771 631.223 416.228C632.365 411.257 634.426 406.41 634.857 401.315C635.519 393.42 632.241 385.789 629.063 378.548C627.738 375.566 622.731 375.864 619.511 375.334C596.673 371.58 572.619 371.556 551.082 380.015C548.854 380.938 546.848 382.325 545.197 384.082Z" fill="#3C354C"/>
        <path d="M561.66 237.033L564.193 246.892C564.882 249.153 565.263 251.497 565.327 253.859C565.353 254.721 565.163 255.576 564.773 256.345C564.356 256.976 563.822 257.522 563.2 257.952C561.47 259.27 560.27 262.343 558.292 263.255C559.31 265.028 560.717 263.876 562.554 264.762C565.791 266.337 568.754 268.598 572.264 269.377C575.575 270.106 579.051 269.419 582.337 268.549C586.997 267.281 591.633 265.533 595.382 262.476C599.132 259.419 601.268 256.718 601.251 251.888C597.112 252.376 593.429 248.193 591.6 244.431C590.965 243.001 590.499 241.503 590.209 239.966L587.991 230.198C585.574 230.728 583.604 232.459 581.294 233.362C578.985 234.266 576.253 234.348 573.687 234.464C569.133 234.672 564.603 235.259 560.146 236.221C559.533 236.345 558.763 236.734 558.912 237.331" fill="#FBB3B2"/>
        <path opacity="0.1" d="M561.66 237.033L564.193 246.892C564.882 249.153 565.263 251.497 565.327 253.859C565.353 254.721 565.163 255.576 564.773 256.345C564.356 256.976 563.822 257.522 563.2 257.952C561.47 259.27 560.27 262.343 558.292 263.255C559.31 265.028 560.717 263.876 562.554 264.762C565.791 266.337 568.754 268.598 572.264 269.377C575.575 270.106 579.051 269.419 582.337 268.549C586.997 267.281 591.633 265.533 595.382 262.476C599.132 259.419 601.268 256.718 601.251 251.888C597.112 252.376 593.429 248.193 591.6 244.431C590.965 243.001 590.499 241.503 590.209 239.966L587.991 230.198C585.574 230.728 583.604 232.459 581.294 233.362C578.985 234.266 576.253 234.348 573.687 234.464C569.133 234.672 564.603 235.259 560.146 236.221C559.533 236.345 558.763 236.734 558.912 237.331" fill="black"/>
        <path d="M572.537 242.468C584.642 242.468 594.455 232.645 594.455 220.529C594.455 208.413 584.642 198.591 572.537 198.591C560.432 198.591 550.618 208.413 550.618 220.529C550.618 232.645 560.432 242.468 572.537 242.468Z" fill="#FBB3B2"/>
        <path d="M578.571 256.693C579.743 254.159 581.435 251.901 583.537 250.065C586.625 247.356 590.846 245.16 591.575 241.117L598.263 248.913C598.626 249.275 598.909 249.71 599.091 250.189C599.175 250.639 599.162 251.101 599.054 251.546C598.946 251.99 598.744 252.406 598.462 252.766C596.806 255.409 594.199 257.298 591.732 259.212C586.078 263.694 580.666 268.473 575.517 273.528C575.29 273.792 574.986 273.977 574.648 274.058C574.328 274.067 574.013 273.977 573.745 273.801C569.303 271.467 565.371 268.267 562.182 264.39C561.942 264.1 561.644 263.768 561.255 263.793C561.02 263.836 560.804 263.949 560.634 264.116C558.407 265.939 555.974 268.118 553.118 267.836C556.818 265.177 558.912 260.736 559.69 256.237C559.844 254.698 560.161 253.178 560.634 251.705C560.879 250.968 561.302 250.303 561.865 249.769C562.428 249.234 563.114 248.846 563.862 248.64C562.058 251.399 563.291 255.309 565.716 257.538C568.073 259.54 570.898 260.911 573.927 261.523C576.742 262.053 577.569 258.864 578.571 256.693Z" fill="#323444"/>
        <path d="M550.055 386.336C553.176 387.107 556.131 388.416 559.16 389.385C564.682 391.116 570.493 391.727 576.253 391.183C578.026 391.144 579.75 390.594 581.22 389.6C581.609 389.285 581.965 388.913 582.378 388.623C583.071 388.207 583.821 387.897 584.605 387.703C592.195 385.325 598.552 380.197 604.719 375.176C604.918 375.01 605.141 374.803 605.125 374.538C605.096 374.358 605.009 374.192 604.876 374.066L601.632 370.338C593.122 371.788 584.406 371.241 575.773 371.025C574.001 370.947 572.225 370.994 570.459 371.166C568.754 371.365 567.074 371.796 565.393 372.16C559.011 373.552 552.489 374.083 546.024 374.994C545.572 375.027 545.133 375.163 544.741 375.392C544.469 375.603 544.236 375.861 544.054 376.154L541.786 379.344C540.906 380.416 540.258 381.661 539.882 382.997C539.353 385.483 540.462 386.311 542.573 385.988C545.066 385.623 547.606 385.741 550.055 386.336Z" fill="#323444"/>
        <path d="M575.425 269.733C572.893 267.136 570.023 264.893 566.892 263.064C565.626 262.26 564.223 261.698 562.753 261.407C562.013 261.261 561.25 261.279 560.518 261.459C559.786 261.639 559.102 261.978 558.515 262.451C557.778 263.105 557.315 264.017 556.603 264.704C555.707 265.458 554.68 266.039 553.573 266.419C549.805 268.031 546.234 270.068 542.929 272.492C541.127 273.754 539.504 275.253 538.103 276.95C534.353 281.755 533.79 288.292 533.89 294.389C533.964 298.631 538.028 301.78 540.826 304.953C543.45 308.075 545.825 311.4 547.928 314.895C549.435 317.281 551.007 319.866 550.817 322.707C550.66 325.036 549.302 327.223 549.517 329.543C549.592 330.371 549.857 331.133 549.931 331.937C550.08 333.594 549.426 335.251 549.261 336.908C549.037 339.253 549.799 341.581 549.84 343.942C549.81 345.558 549.604 347.167 549.228 348.739C547.638 356.311 545.644 363.925 546.049 371.655L541.463 372.484C541.898 372.91 542.226 373.432 542.421 374.009C542.616 374.585 542.673 375.2 542.587 375.802C542.5 376.405 542.274 376.979 541.925 377.478C541.576 377.976 541.114 378.385 540.578 378.672C547.738 381.067 555.477 379.857 563.067 379.849C569.35 379.849 575.608 380.677 581.882 380.561C588.156 380.445 594.629 379.31 599.802 375.756C601.209 374.795 602.501 373.668 603.982 372.832C605.967 371.802 608.106 371.103 610.315 370.76C614.406 369.979 618.565 369.607 622.731 369.65C624.767 369.65 626.985 369.733 628.608 368.507C630.395 367.148 630.851 364.687 631.091 362.459C631.331 360.106 631.48 357.745 631.521 355.383C631.591 353.545 631.494 351.703 631.231 349.882C630.983 348.55 630.66 347.234 630.263 345.939L627.142 334.936C625.851 330.396 627.647 325.417 628.028 320.711C628.119 319.601 628.136 318.308 627.283 317.596C626.977 317.339 626.555 317.165 626.455 316.767C626.411 316.578 626.405 316.382 626.44 316.191C626.474 316 626.547 315.819 626.654 315.657C628.31 312.343 630.793 309.418 633.061 306.428C636.87 301.181 640.406 295.742 643.656 290.131C642.638 278.39 637.699 267.334 629.634 258.748C627.978 256.95 626.083 255.226 623.765 254.415C622.251 253.952 620.68 253.698 619.097 253.661C612.607 253.222 605.853 252.832 600.2 249.568C599.794 249.287 599.335 249.092 598.85 248.996C597.601 248.855 596.69 250.09 595.879 251.067C593.793 253.553 590.722 254.978 588.024 256.809C582.991 260.231 579.059 264.936 575.425 269.733Z" fill="#5B5583"/>
        <path d="M644.219 293.52C645.51 297.612 645.386 301.987 645.808 306.254C646.058 308.828 646.509 311.38 647.157 313.884C647.453 315.261 647.985 316.575 648.73 317.77C649.475 318.863 650.543 319.75 651.014 320.984C651.272 321.821 651.387 322.695 651.354 323.569L651.453 329.286C651.666 332.315 651.205 335.354 650.104 338.184L646.536 349.045C644.608 354.928 642.629 360.901 639.153 366.021C638.663 366.888 637.921 367.584 637.026 368.018C636.325 368.203 635.606 368.315 634.882 368.349C633.62 368.575 632.476 369.233 631.646 370.211C630.817 371.19 630.354 372.427 630.338 373.71C629.509 372.498 628.476 371.441 627.283 370.586L620.024 364.787C617.541 362.765 614.95 360.711 611.937 359.542C615.989 358.276 619.587 355.859 622.294 352.585C625 349.311 626.699 345.322 627.184 341.1C627.181 339.843 627.464 338.602 628.012 337.471C628.616 336.494 629.733 335.748 629.816 334.596C629.915 333.147 628.277 332.053 628.277 330.603C628.277 329.642 628.988 328.847 629.303 327.944C629.597 326.828 629.597 325.654 629.303 324.539L628.301 318.971C628.242 318.413 628.074 317.873 627.805 317.38C627.43 316.908 627.015 316.47 626.563 316.071C624.841 314.141 625.603 311.1 626.563 308.723C628.768 303.445 631.609 298.456 635.023 293.868C636.238 292.327 637.363 290.717 638.391 289.046C639.269 287.521 639.468 285.409 640.395 284.075C641.587 287.206 643.201 290.297 644.219 293.52Z" fill="#5B5583"/>
        <path d="M611.681 359.882C611.311 360.157 610.992 360.493 610.737 360.876C609.762 362.102 608.463 363.029 606.987 363.552C607.815 364.149 608.568 364.737 609.346 365.342C615.103 369.792 620.375 374.838 625.073 380.396C625.595 378.532 628.715 378.664 629.477 376.883C629.656 376.373 629.713 375.828 629.642 375.292C629.484 372.501 629.085 369.729 628.45 367.007C628.2 365.606 627.634 364.28 626.795 363.13C625.636 361.73 623.832 361.059 622.11 360.479C619.503 359.567 614.329 358.283 611.681 359.882Z" fill="#323444"/>
        <path d="M601.334 366.394C598.85 368.233 596.674 370.537 593.884 371.796C591.914 372.691 589.671 373.08 587.949 374.414C588.885 376.477 591.318 377.546 593.578 377.463C595.84 377.24 598.007 376.445 599.877 375.151C601.359 374.24 603.097 373.179 604.711 373.817C604.959 375.077 603.883 376.261 603.883 377.537C603.883 378.813 604.943 379.741 605.986 380.412C610.952 383.619 617.342 383.353 623.26 382.981C623.6 382.993 623.934 382.894 624.212 382.699C624.341 382.549 624.438 382.375 624.499 382.188C624.56 382 624.584 381.802 624.568 381.605C624.643 380.296 624.676 378.996 624.684 377.686C624.851 376.631 624.714 375.55 624.289 374.569C623.864 373.589 623.168 372.751 622.284 372.152C619.072 369.389 615.608 366.934 611.937 364.82C608.295 362.707 604.603 363.958 601.334 366.394Z" fill="#FBB3B2"/>
        <path d="M580.235 211.358C576.56 211.797 573.886 214.672 574.259 217.795C574.631 220.919 577.909 223.073 581.584 222.625C585.259 222.178 587.933 219.311 587.56 216.196C587.188 213.081 583.91 210.919 580.235 211.358ZM581.485 221.764C578.372 222.136 575.599 220.305 575.277 217.671C574.954 215.036 577.23 212.6 580.334 212.228C583.438 211.855 586.219 213.686 586.542 216.32C586.865 218.955 584.589 221.391 581.485 221.764Z" fill="#3C354C"/>
        <path d="M562.322 213.512C558.647 213.951 555.974 216.826 556.346 219.941C556.719 223.056 559.996 225.218 563.672 224.779C567.347 224.34 570.02 221.465 569.648 218.342C569.275 215.218 565.998 213.073 562.322 213.512ZM563.572 223.909C560.46 224.282 557.687 222.451 557.373 219.825C557.058 217.199 559.318 214.754 562.43 214.373C565.542 213.992 568.315 215.832 568.63 218.466C568.944 221.101 566.676 223.537 563.572 223.909Z" fill="#3C354C"/>
        <path d="M549.021 215.111L557.008 216.817L556.222 218.922L548.69 216.71L549.021 215.111Z" fill="#3C354C"/>
        <path d="M593.545 209.759L586.178 213.313L587.444 215.169L594.24 211.233L593.545 209.759Z" fill="#3C354C"/>
        <path d="M568.911 216.287L574.515 215.616L574.225 217.008L569.416 217.331L568.911 216.287Z" fill="#3C354C"/>
        <path d="M558.043 214.407C558.57 213.271 558.852 212.038 558.871 210.786C558.89 210.037 559.019 209.294 559.252 208.582C559.658 207.678 560.278 206.885 561.056 206.271C563.639 204.083 567.339 202.957 570.989 202.799C574.969 202.616 578.929 203.473 582.478 205.285C583.562 205.793 584.533 206.514 585.334 207.406C586.492 208.822 586.741 210.653 587.908 212.054C588.704 212.903 589.706 213.533 590.817 213.881C591.928 214.229 593.11 214.285 594.248 214.042C594.654 212.6 594.124 211.076 594.331 209.601C594.657 208.338 595.098 207.106 595.647 205.923C596.93 202.136 595.059 197.745 591.202 195.484C589.853 194.655 588.255 194.117 587.246 192.998C586.236 191.88 585.996 190.72 585.3 189.601C583.455 186.644 578.679 185.26 575.045 186.627C573.902 187.058 572.893 187.712 571.734 188.176C569.582 189.063 567.132 189.22 564.764 189.518C562.431 189.734 560.149 190.333 558.01 191.291C555.965 192.302 554.252 193.926 553.78 195.865C553.557 196.76 553.606 197.687 553.383 198.574C552.241 203.073 544.866 205.26 544.452 209.85C544.303 211.507 545.205 213.097 546.331 214.448C547.109 215.368 548.971 217.828 550.287 218.184C551.603 218.541 552.605 217.29 553.863 216.859C555.85 216.237 557.05 216.105 558.043 214.407Z" fill="#CBCEDA"/>
        <path d="M651.42 506.211C651.42 547.835 677.51 581.521 709.75 581.521L651.42 506.211Z" fill="#46455B"/>
        <path d="M709.75 581.53C709.75 539.434 738.87 505.374 774.852 505.374L709.75 581.53Z" fill="#FFDEED"/>
        <path d="M672.56 509.989C672.56 549.533 689.198 581.53 709.751 581.53L672.56 509.989Z" fill="#FFDEED"/>
        <path d="M709.75 581.53C709.75 527.744 743.406 484.215 784.992 484.215L709.75 581.53Z" fill="#46455B"/>
        <path opacity="0.1" d="M707.226 595.912C715.235 595.912 721.728 594.814 721.728 593.46C721.728 592.106 715.235 591.008 707.226 591.008C699.217 591.008 692.724 592.106 692.724 593.46C692.724 594.814 699.217 595.912 707.226 595.912Z" fill="#FFDEED"/>
        <path d="M697.483 582.06C697.483 582.06 705.761 581.803 708.244 580.03C710.727 578.257 720.966 576.128 721.587 578.978C722.208 581.828 734.003 593.153 724.675 593.228C715.346 593.303 702.971 591.77 700.488 590.254C698.005 588.738 697.483 582.06 697.483 582.06Z" fill="#A8A8A8"/>
        <path opacity="0.2" d="M724.848 592.234C715.511 592.308 703.153 590.776 700.662 589.26C698.766 588.108 698.013 583.957 697.757 582.052H697.483C697.483 582.052 698.005 588.729 700.496 590.245C702.988 591.762 715.346 593.294 724.683 593.22C727.381 593.22 728.308 592.234 728.259 590.817C727.886 591.679 726.901 592.217 724.848 592.234Z" fill="black"/>
        <path d="M18.6157 530.536C18.6157 563.676 39.3671 590.453 65.0186 590.453L18.6157 530.536Z" fill="#46455B"/>
        <path d="M65.0186 590.453C65.0186 556.965 88.1952 529.865 116.81 529.865L65.0186 590.453Z" fill="#FFDEED"/>
        <path d="M35.427 533.551C35.427 565.034 48.6708 590.469 65.0186 590.469L35.427 533.551Z" fill="#FFDEED"/>
        <path d="M65.0186 590.453C65.0186 547.661 91.7958 513.03 124.88 513.03L65.0186 590.453Z" fill="#46455B"/>
        <path opacity="0.1" d="M63.0074 601.902C69.38 601.902 74.546 601.027 74.546 599.947C74.546 598.867 69.38 597.992 63.0074 597.992C56.6348 597.992 51.4688 598.867 51.4688 599.947C51.4688 601.027 56.6348 601.902 63.0074 601.902Z" fill="#FFDEED"/>
        <path d="M55.2598 590.875C55.2598 590.875 61.8403 590.668 63.8186 589.218C65.7968 587.768 73.95 586.111 74.4384 588.39C74.9268 590.668 84.3299 599.665 76.9216 599.723C69.5134 599.781 59.655 598.564 57.6768 597.362C55.6985 596.161 55.2598 590.875 55.2598 590.875Z" fill="#A8A8A8"/>
        <path opacity="0.2" d="M77.0292 599.003C69.5796 599.061 59.7627 597.843 57.7844 596.633C56.2779 595.722 55.6819 592.416 55.475 590.9H55.2598C55.2598 590.9 55.6736 596.211 57.6519 597.42C59.6302 598.63 69.472 599.839 76.8968 599.781C79.0406 599.781 79.7856 599.003 79.7442 597.868C79.4462 598.53 78.6268 598.953 77.0292 599.003Z" fill="black"/>
    </g>
    <defs>
        <clipPath id="clip0">
            <rect width="785" height="628" fill="white"/>
        </clipPath>
    </defs>
</svg>
