<svg width="725" height="592" viewBox="0 0 725 592" fill="none" xmlns="http://www.w3.org/2000/svg">
    <g clip-path="url(#clip0)">
        <path opacity="0.1" d="M707.371 343.178C707.371 343.627 707.371 344.077 707.371 344.519C707.292 352.275 706.833 360.011 705.992 367.727C705.996 367.773 705.996 367.82 705.992 367.867C705.925 368.508 705.852 369.142 705.778 369.784C705.652 370.867 705.52 371.944 705.372 373.027C703.652 386.218 700.807 399.238 696.867 411.944C691.589 429.114 684.127 445.536 674.665 460.807C671.754 465.476 668.653 469.995 665.363 474.364C663.608 476.679 661.816 478.942 659.964 481.168C658.666 482.726 657.343 484.26 655.996 485.768L655.155 486.697C648.065 494.477 640.423 501.735 632.289 508.415C619.011 519.415 604.716 528.984 590.193 537.86C589.366 538.368 588.533 538.87 587.699 539.334C587.641 539.376 587.58 539.413 587.515 539.445C567.776 551.373 547.307 562.136 526.219 570.754C503.131 580.212 479.291 587.09 454.832 590.098C420.739 594.285 386.233 590.88 352.347 585.026C324.164 580.186 296.323 573.538 268.996 565.122L264.496 563.713C262.165 562.971 259.837 562.214 257.511 561.443C243.462 556.798 229.57 551.638 215.835 545.961C181.34 531.762 148.387 514.078 117.488 493.185C113.554 490.541 109.677 487.838 105.856 485.075C100.516 481.232 95.2392 477.276 90.0267 473.206L86.8106 470.715C73.1694 460.039 60.3889 448.308 48.5871 435.631C32.7135 418.366 19.1487 398.889 10.2308 376.654C8.82444 373.16 7.53607 369.599 6.36571 365.972L6.25506 365.611C5.66497 363.768 5.11913 361.925 4.61754 360.008C3.87992 357.266 3.23328 354.489 2.6776 351.678C2.55958 351.14 2.45632 350.601 2.36043 350.056C0.597428 340.595 -0.181222 330.977 0.036919 321.356C0.221402 312.927 1.20936 304.534 2.9874 296.291C4.80727 287.747 7.61173 279.442 11.3446 271.543C14.7181 264.44 19.0163 257.814 24.1276 251.838C27.7193 247.659 31.7585 243.887 36.173 240.588C44.1761 234.631 53.0497 230.481 62.2479 227.2C66.5703 225.652 70.9518 224.296 75.3554 223.035C78.4755 222.136 81.6104 221.28 84.7305 220.44L93.936 217.956C99.837 216.349 105.738 214.697 111.55 212.913C127.395 208.077 142.921 202.224 157.283 193.495C159.555 192.116 161.871 190.605 164.187 188.983C167.138 186.934 170.044 184.708 172.92 182.304C175.827 179.871 178.674 177.269 181.388 174.512C181.809 174.084 182.222 173.657 182.635 173.222C184.848 170.892 186.994 168.452 188.986 165.916C189.96 164.678 190.904 163.417 191.804 162.134C193.05 160.358 194.23 158.551 195.322 156.694C200.795 147.405 204.173 137.158 203.775 126.358C203.717 124.578 203.557 122.803 203.296 121.042C202.337 114.533 201.415 108.178 200.736 101.963C197.889 76.2569 199.091 52.9464 218.395 31.0439C242.397 3.81884 280.067 -1.73234 314.359 0.442427C413.503 6.70869 503.758 63.282 583.075 130.633C589.934 136.452 596.711 142.35 603.403 148.326C605.09 149.83 606.779 151.344 608.471 152.868C621.01 164.154 633.358 175.861 644.858 188.401C645.787 189.418 646.716 190.436 647.631 191.46C648.192 192.094 648.76 192.721 649.313 193.362C652.898 197.417 656.377 201.57 659.75 205.821C668.787 217.107 676.767 229.199 683.59 241.944C694.037 261.946 701.11 283.534 704.524 305.838C705.807 313.938 706.652 322.101 707.054 330.291C707.179 332.702 707.26 335.12 707.305 337.531C707.305 338.305 707.305 339.072 707.305 339.846C707.378 340.966 707.378 342.057 707.371 343.178Z" fill="#888EB6"/>
        <path d="M290.608 330.815L278.806 540.764L290.608 540.919L300.197 327.866L290.608 330.815Z" fill="#5A5A54"/>
        <path d="M247.088 437.186H101.039V468.886H247.088V437.186Z" fill="#888EB6"/>
        <path d="M256.677 465.193V485.097H105.812C100.471 481.254 95.1949 477.298 89.9824 473.228V465.193H256.677Z" fill="#5A5A54"/>
        <path d="M286.802 419.891C286.389 421.801 285.85 423.688 285.282 425.568C283.608 431.001 281.594 436.361 281.203 442.008C280.679 449.468 282.678 458.145 277.515 463.564C276.187 464.964 274.454 466.011 273.266 467.508C273.083 467.742 272.916 467.989 272.765 468.245C271.703 469.999 271.577 472.137 271.562 474.143C271.575 478.419 271.853 482.691 272.396 486.933C274.144 501.53 277.596 516.156 273.06 529.934C272.238 532.324 271.28 534.665 270.19 536.945C267.978 541.811 265.566 546.61 264.843 551.881C264.312 555.788 264.474 559.814 264.444 563.787C262.113 563.045 259.785 562.288 257.459 561.516C243.41 556.872 229.518 551.712 215.784 546.035C215.82 545.836 215.857 545.63 215.887 545.431C216.942 538.869 215.496 532.161 213.74 525.762C210.052 512.205 204.83 498.78 201.739 485.127C200.495 479.794 199.678 474.371 199.298 468.908C199.209 467.685 199.158 466.454 199.15 465.222C199.113 463.615 199.15 462.008 199.217 460.386C199.371 457.15 199.512 453.309 196.923 451.341C195.499 450.272 193.618 450.088 191.958 449.439C188.757 448.193 186.566 445.303 184.029 442.988C182.819 441.815 181.341 440.953 179.723 440.478C178.105 440.003 176.396 439.928 174.742 440.261C158.161 444.057 145.975 458.116 130.544 465.222C129.947 465.503 129.349 465.768 128.744 466.019C126.748 466.749 124.848 467.719 123.087 468.908C121.849 469.767 120.951 471.032 120.549 472.484C120.158 474.047 120.498 475.683 120.689 477.29C121 479.904 120.888 482.549 120.358 485.127C120.158 486.126 119.894 487.111 119.568 488.076C118.978 489.823 118.189 491.533 117.437 493.236C113.503 490.592 109.625 487.889 105.804 485.127C100.464 481.284 95.1875 477.327 89.9749 473.258L86.8105 470.715C73.1694 460.039 60.3888 448.308 48.587 435.631C50.1582 431.208 52.43 427.094 53.5217 422.56C54.1413 419.958 54.37 417.252 55.2256 414.724C56.2123 412.102 57.5847 409.642 59.2973 407.425C65.5696 398.683 73.2286 391.023 81.9717 384.749C91.1109 378.202 101.666 372.953 109.891 365.522C113.228 362.602 116.106 359.194 118.425 355.415C118.565 355.187 118.698 354.943 118.816 354.678C119.458 353.344 119.903 351.923 120.136 350.461C120.726 347.159 120.638 343.531 120.933 340.361C130.952 342.095 141.166 342.403 151.271 341.276C163.036 339.956 174.543 336.69 186.308 335.422C187.193 335.319 188.086 335.238 188.978 335.164C192.748 334.862 196.524 334.796 200.308 334.84C203.473 334.84 206.637 334.98 209.801 335.083L244.639 336.263C248.497 336.395 252.436 336.543 256.028 337.951C260.292 339.624 263.707 342.956 266.443 346.62C266.79 347.092 267.137 347.564 267.461 348.051C269.713 351.334 271.519 354.901 272.831 358.659C272.971 359.042 273.104 359.396 273.229 359.816C273.561 360.841 273.849 361.873 274.107 362.92C274.306 363.738 274.483 364.557 274.646 365.382C275.457 369.466 275.937 373.639 277.22 377.583C277.308 377.871 277.404 378.158 277.508 378.438C279.049 382.758 281.609 386.629 283.541 390.779C284.935 393.784 285.998 396.93 286.713 400.164C288.158 406.657 288.188 413.385 286.802 419.891Z" fill="#35323E"/>
        <path d="M180.909 156.067C177.796 153.59 173.282 155.403 169.638 157.003C166.583 158.352 163.438 159.487 160.226 160.402C159.569 160.655 158.856 160.728 158.161 160.615C156.685 160.262 156.066 158.514 154.967 157.453C153.056 155.617 149.929 156.052 147.465 157.047C145.001 158.043 142.567 159.48 139.927 159.259C137.109 159.038 134.66 156.959 131.813 156.893C126.797 156.775 122.585 162.952 117.842 161.316C114.951 160.321 112.679 156.561 109.832 157.63C107.619 158.47 107.42 161.53 106.085 163.527C104.513 165.857 101.452 166.513 98.8338 167.545C90.5798 170.804 85.114 179.997 86.191 188.799C86.7884 193.657 89.1414 198.11 90.6978 202.747C95.3153 216.23 93.7294 231.439 99.5493 244.443C100.287 243.75 100.7 243.492 101.415 242.807C99.5753 246.621 99.2204 250.983 100.42 255.044C101.032 257.087 102.028 258.988 102.78 260.986C103.562 263.227 104.192 265.518 104.668 267.842L111.086 296.136C113.594 307.195 116.109 318.253 116.544 329.576C116.815 336.939 116.251 344.309 114.862 351.545C126.487 349.621 137.124 344.468 148.903 344.534C153.226 344.534 157.512 345.271 161.797 345.861C174.292 347.609 186.895 348.463 199.512 348.419C201.474 348.531 203.439 348.255 205.295 347.608C206.917 346.915 208.245 345.684 209.779 344.792C212.781 343.023 216.418 342.581 219.877 342.581C235.655 342.293 250.857 348.065 266.532 350.1C272.721 337.118 273.089 321.563 268.339 307.991C266.93 303.958 265.035 300.029 264.474 295.79C264.249 293.184 264.19 290.567 264.297 287.953C264.272 281.263 263.066 274.63 260.734 268.358C259.82 265.904 258.72 263.404 258.816 260.787C258.912 258.17 260.203 255.73 261.472 253.415C264.046 248.697 266.635 243.935 270.272 239.954C273.997 235.84 278.658 232.707 283.268 229.633L294.65 221.995C293.094 212.168 291.087 201.818 286.92 192.78C282.752 183.742 276.519 175.433 268.088 170.148C265.246 168.439 262.271 166.959 259.193 165.724C254.885 163.911 250.4 162.311 245.731 162.038C240.42 161.736 235.19 163.159 229.946 164.043C213.438 166.823 194.009 166.484 180.909 156.067Z" fill="#888EB6"/>
        <path d="M305.36 326.598L299.946 333.432L289.737 346.311L277.935 361.195L274.638 365.353H268.243L109.883 365.537L10.7103 365.648H6.28453C5.69443 363.805 5.14859 361.962 4.64701 360.045C3.90939 357.303 3.26274 354.526 2.70707 351.714C2.58905 351.176 2.48578 350.638 2.38989 350.093L38.371 326.583L51.899 326.509L93.2795 326.273L116.389 326.141H120.608H123.256L138.658 326.06L256.043 325.389L262.047 325.352H264.651L271.548 325.315L297.21 325.168L302.137 323.295L302.498 323.678L305.36 326.598Z" fill="#5A5A54"/>
        <path d="M303.147 322.912L302.535 323.649L298.508 328.389L290.217 338.172L272.831 358.659L118.816 354.73L2.67754 351.781C2.55952 351.243 2.45625 350.704 2.36036 350.159C0.597367 340.698 -0.181283 331.08 0.036858 321.459L12.9157 314.869L15.8662 313.35L38.8283 301.555L58.9801 291.234L111.543 298.06L123.183 299.572L128.449 300.25L136.157 301.253L136.806 301.341L257.68 317.007L271.039 318.739L278.88 319.757L303.044 322.897L303.147 322.912Z" fill="#504F60"/>
        <path d="M278.068 358.298L277.943 361.195L277.205 377.554L273.237 467.493L272.396 486.933L270.183 536.945L268.936 565.195L264.437 563.787C262.106 563.045 259.778 562.288 257.452 561.516L268.243 365.419L268.472 361.306L273.222 359.831L278.068 358.298Z" fill="#5A5A54"/>
        <path d="M11.0495 358.084L10.7176 365.655L10.2308 376.713C8.82439 373.219 7.53601 369.658 6.36566 366.031L6.25501 365.67C5.66491 363.827 5.11907 361.984 4.61749 360.067L11.0495 358.084Z" fill="#5A5A54"/>
        <path d="M203.937 246.618C222.677 246.618 237.868 226.154 237.868 200.911C237.868 175.668 222.677 155.204 203.937 155.204C185.198 155.204 170.007 175.668 170.007 200.911C170.007 226.154 185.198 246.618 203.937 246.618Z" fill="#AB7D8B"/>
        <path opacity="0.1" d="M203.937 246.618C222.677 246.618 237.868 226.154 237.868 200.911C237.868 175.668 222.677 155.204 203.937 155.204C185.198 155.204 170.007 175.668 170.007 200.911C170.007 226.154 185.198 246.618 203.937 246.618Z" fill="#5A5A54"/>
        <path d="M208.732 220.447C234.804 220.447 255.94 199.323 255.94 173.266C255.94 147.208 234.804 126.085 208.732 126.085C182.66 126.085 161.524 147.208 161.524 173.266C161.524 199.323 182.66 220.447 208.732 220.447Z" fill="#AB7D8B"/>
        <path d="M209.669 100.548C206.786 100.777 203.925 101.214 201.105 101.853C193.64 103.666 187.186 107.691 180.901 111.643C178.084 113.419 175.185 115.27 173.437 117.88C170.294 122.561 171.512 128.517 169.749 133.715C168.834 136.383 167.152 138.779 165.729 141.264C161.812 148.076 159.761 155.558 157.748 162.967C157.334 164.501 157.216 166.579 158.891 167.169C159.855 167.369 160.858 167.256 161.753 166.845C167.042 165.098 173.761 164.596 177.685 168.142C181.61 171.688 181.278 177.977 185.947 180.675C191.295 183.793 199.644 180.026 204.498 183.705C206.578 185.282 207.33 187.811 209.034 189.713C213.003 194.136 220.637 193.923 226.988 193.031C230.632 192.514 235.102 192.168 237.315 194.726C238.377 195.935 238.679 197.594 239.911 198.685C242.124 200.661 246.174 199.658 248.335 197.631C250.496 195.603 251.529 192.861 253.328 190.583C256.832 186.16 262.991 183.749 266.606 179.377C269.63 175.691 270.545 171.076 271.371 166.624L274.447 150.118C275.693 143.424 276.829 136.111 273.06 130.213C271.717 128.09 269.792 126.262 268.634 124.065C267.86 122.59 267.424 121.035 266.524 119.641C265.457 118.19 264.182 116.903 262.74 115.823L255.46 109.8C252.971 107.622 250.309 105.65 247.501 103.902C237.108 97.8496 221.544 99.442 209.669 100.548Z" fill="#464353"/>
        <path d="M54.1782 222.084C52.4301 223.942 50.8147 225.947 48.9411 227.687C47.293 229.152 45.5695 230.53 43.7778 231.815C40.8863 233.977 38.0587 236.216 35.2951 238.531C32.4119 240.809 29.8029 243.414 27.5206 246.294C23.5817 251.58 21.7155 258.155 18.0274 263.618C14.7671 268.462 10.1718 272.288 6.85985 277.094C5.40691 279.115 4.32771 281.38 3.67333 283.781C3.18488 286.105 2.96462 288.477 3.01685 290.851C2.95046 294.743 2.89145 298.68 3.68809 302.491C4.48472 306.302 6.23287 310.047 9.22761 312.547C12.0084 314.869 15.6007 315.938 19.1191 316.822C20.9337 317.272 22.8957 317.692 24.6218 316.977C25.8848 316.34 26.9811 315.416 27.823 314.279L36.7999 303.958C42.8041 297.028 49.0444 289.951 57.2836 285.897C59.8653 284.636 62.5871 283.685 65.1761 282.461C76.1519 277.175 83.9117 266.353 86.9212 254.558C87.6588 251.675 88.1309 248.734 88.6103 245.792L89.9086 237.727C90.0083 237.323 90.0083 236.901 89.9086 236.496C89.7053 236.042 89.3781 235.653 88.9644 235.376C82.7117 230.329 76.8573 224.808 71.4533 218.862C70.1698 217.447 68.9675 215.508 67.4849 214.321C65.6261 212.847 65.7662 212.957 63.5312 214.321C60.0931 216.497 56.9496 219.106 54.1782 222.084Z" fill="#AB7D8B"/>
        <path d="M115.585 275.753C115.511 275.581 115.402 275.427 115.266 275.299C115.13 275.17 114.97 275.071 114.795 275.006C114.619 274.941 114.433 274.913 114.246 274.922C114.06 274.931 113.877 274.978 113.708 275.059C113.54 275.141 113.39 275.255 113.268 275.396C113.145 275.537 113.052 275.701 112.995 275.879C112.937 276.057 112.916 276.244 112.933 276.43C112.949 276.616 113.004 276.797 113.092 276.962L112.354 277.323L134.35 322.381L138.326 320.442L116.33 275.354L115.585 275.753Z" fill="#5A5A54"/>
        <path opacity="0.04" d="M54.1782 222.084C52.4301 223.942 50.8147 225.947 48.9411 227.687C47.293 229.152 45.5695 230.53 43.7778 231.815C40.8863 233.977 38.0587 236.216 35.2951 238.531C32.4119 240.809 29.8029 243.414 27.5206 246.294C23.5817 251.58 21.7155 258.155 18.0274 263.618C14.7671 268.462 10.1718 272.288 6.85985 277.094C5.40691 279.115 4.32771 281.38 3.67333 283.781C3.18488 286.105 2.96462 288.477 3.01685 290.851C2.95046 294.743 2.89145 298.68 3.68809 302.491C4.48472 306.302 6.23287 310.047 9.22761 312.547C12.0084 314.869 15.6007 315.938 19.1191 316.822C20.9337 317.272 22.8957 317.692 24.6218 316.977C25.8848 316.34 26.9811 315.416 27.823 314.279L36.7999 303.958C42.8041 297.028 49.0444 289.951 57.2836 285.897C59.8653 284.636 62.5871 283.685 65.1761 282.461C76.1519 277.175 83.9117 266.353 86.9212 254.558C87.6588 251.675 88.1309 248.734 88.6103 245.792L89.9086 237.727C90.0083 237.323 90.0083 236.901 89.9086 236.496C89.7053 236.042 89.3781 235.653 88.9644 235.376C82.7117 230.329 76.8573 224.808 71.4533 218.862C70.1698 217.447 68.9675 215.508 67.4849 214.321C65.6261 212.847 65.7662 212.957 63.5312 214.321C60.0931 216.497 56.9496 219.106 54.1782 222.084Z" fill="#5A5A54"/>
        <path d="M308.466 305.123C308.392 309.826 308.207 314.67 306.253 318.96C305.412 320.818 304.106 322.646 302.152 323.258C300.969 323.531 299.744 323.576 298.545 323.391C284.073 322.12 269.491 323.276 255.401 326.812C259.163 319.292 257.002 310.276 258.042 301.931C258.33 299.653 258.853 297.412 259.052 295.126C259.79 287.017 256.316 279.144 254.723 271.138C253.34 264.207 253.34 257.072 254.723 250.142C254.994 248.358 255.608 246.643 256.53 245.092C257.61 243.583 259.03 242.348 260.675 241.487C266.65 238.089 273.694 237.698 280.407 238.148C284.928 238.45 293.994 238.022 297.763 240.802C301.886 243.846 303.192 254.071 304.305 258.797C305.973 266.044 307.107 273.404 307.699 280.817C308.421 288.897 308.576 297.014 308.466 305.123Z" fill="#AB7D8B"/>
        <path d="M44.2425 321.445L70.7968 339.138L190.291 334.714L111.366 321.445H44.2425Z" fill="white"/>
        <path d="M79.2573 180.867C74.898 184.707 71.2025 189.234 67.0718 193.325C61.4069 198.943 54.9675 203.72 48.5576 208.475C50.8558 209.117 52.9478 210.345 54.6288 212.038C56.3097 213.73 57.5219 215.831 58.1466 218.132C58.4269 219.216 58.5671 220.344 58.8842 221.406C59.6219 223.92 61.2446 226.087 62.9854 228.041C70.4649 236.467 80.9317 242.704 85.3427 253.106C85.4867 253.612 85.7989 254.054 86.2278 254.359C86.5867 254.518 86.9854 254.564 87.3712 254.492C91.3617 254.071 94.4154 250.857 96.9602 247.731C102.271 241.096 106.881 233.769 109.5 225.674C112.118 217.58 112.539 208.63 109.684 200.609C108.261 196.613 106.062 192.942 103.879 189.308C101.966 186.128 100.058 182.953 98.1552 179.783C97.1594 178.109 95.8907 174.711 93.936 173.885C89.7168 172.072 81.9644 178.161 79.2573 180.867Z" fill="#888EB6"/>
        <path d="M296.516 228.512L302.793 243.256C295.96 240.87 288.656 240.144 281.486 241.137C274.317 242.131 267.486 244.816 261.56 248.97C257.983 251.528 254.7 254.742 253.085 258.826C252.288 258.978 251.464 258.901 250.708 258.605C249.953 258.309 249.296 257.806 248.814 257.153C247.87 255.829 247.322 254.264 247.236 252.641C246.653 246.979 248.799 241.428 250.924 236.135C251.912 233.658 252.93 231.129 254.686 229.117C256.441 227.104 258.772 225.777 261.103 224.524C268.539 220.414 276.327 216.975 284.375 214.247C287.768 213.149 291.323 213.171 293.226 216.341C295.432 220.123 294.79 224.487 296.516 228.512Z" fill="#888EB6"/>
        <path d="M44.3974 272.752C45.9686 274.005 47.3479 275.487 48.9633 276.681C50.6717 277.867 52.4896 278.887 54.3922 279.726L61.6651 283.221C63.9189 284.391 66.2772 285.349 68.7094 286.081C71.8222 286.914 75.0898 286.995 78.2173 287.769C82.1636 288.742 85.7706 290.77 89.6578 291.942C93.5451 293.114 98.0962 293.306 101.342 290.865C103.37 289.339 104.904 286.818 107.42 286.442C109.042 286.228 110.606 287.01 112.052 287.769L130.979 297.714C133.532 299.056 136.231 300.545 137.566 303.103C138.901 305.661 138.001 309.546 135.191 310.21C134.212 310.322 133.227 310.379 132.241 310.379C131.267 310.497 130.205 311.072 130.072 312.053C130.067 312.662 130.228 313.26 130.537 313.785C131.385 315.731 131.636 318.061 130.647 319.948C129.659 321.835 127.232 323.008 125.292 322.16C125.624 325.013 122.519 327.011 119.753 327.77C112.775 329.679 105.377 328.507 98.2437 327.298C95.4408 326.826 92.5936 326.34 90.0414 325.087C88.8169 324.489 87.681 323.723 86.4418 323.17C83.0414 321.658 79.1762 321.858 75.4586 321.924C58.2647 322.226 41.2183 319.041 24.312 315.871C21.1771 315.282 17.9537 314.655 15.2762 312.923C10.1128 309.561 8.195 302.661 9.04326 296.557C9.89152 290.453 12.9895 284.923 16.0359 279.557L19.9822 272.605C20.498 271.54 21.2201 270.588 22.1065 269.803C27.9116 265.373 39.4259 268.756 44.3974 272.752Z" fill="#AB7D8B"/>
        <path opacity="0.04" d="M44.3974 272.752C45.9686 274.005 47.3479 275.487 48.9633 276.681C50.6717 277.867 52.4896 278.887 54.3922 279.726L61.6651 283.221C63.9189 284.391 66.2772 285.349 68.7094 286.081C71.8222 286.914 75.0898 286.995 78.2173 287.769C82.1636 288.742 85.7706 290.77 89.6578 291.942C93.5451 293.114 98.0962 293.306 101.342 290.865C103.37 289.339 104.904 286.818 107.42 286.442C109.042 286.228 110.606 287.01 112.052 287.769L130.979 297.714C133.532 299.056 136.231 300.545 137.566 303.103C138.901 305.661 138.001 309.546 135.191 310.21C134.212 310.322 133.227 310.379 132.241 310.379C131.267 310.497 130.205 311.072 130.072 312.053C130.067 312.662 130.228 313.26 130.537 313.785C131.385 315.731 131.636 318.061 130.647 319.948C129.659 321.835 127.232 323.008 125.292 322.16C125.624 325.013 122.519 327.011 119.753 327.77C112.775 329.679 105.377 328.507 98.2437 327.298C95.4408 326.826 92.5936 326.34 90.0414 325.087C88.8169 324.489 87.681 323.723 86.4418 323.17C83.0414 321.658 79.1762 321.858 75.4586 321.924C58.2647 322.226 41.2183 319.041 24.312 315.871C21.1771 315.282 17.9537 314.655 15.2762 312.923C10.1128 309.561 8.195 302.661 9.04326 296.557C9.89152 290.453 12.9895 284.923 16.0359 279.557L19.9822 272.605C20.498 271.54 21.2201 270.588 22.1065 269.803C27.9116 265.373 39.4259 268.756 44.3974 272.752Z" fill="#5A5A54"/>
        <path d="M269.563 285.491C265.72 287.305 261.31 287.482 257.297 288.875C253.284 290.268 249.876 292.775 246.196 294.817C236.607 300.169 225.542 302.189 214.677 304.113C208.09 305.293 201.4 306.472 194.761 306.192C185.777 305.809 177.147 302.815 168.443 300.56C159.739 298.304 150.452 296.785 141.83 299.321C137.327 300.691 133.211 303.103 129.815 306.36C126.418 309.617 123.838 313.628 122.283 318.068C120.476 323.369 120.225 329.082 120.571 334.67C122.386 336.005 124.923 334.154 125.912 332.127C126.9 330.1 127.439 327.615 129.357 326.436C132.683 327.564 133.495 331.994 136.239 334.184C137.95 335.555 140.236 335.916 142.412 336.226L153.624 337.818C156.324 338.201 159.459 338.459 161.414 336.557C162.365 335.636 162.889 334.346 163.759 333.358C165.544 331.382 168.524 331.043 171.18 331.309C179.47 332.134 187.245 337.508 195.477 336.233C198.309 335.798 200.943 334.589 203.642 333.638C219.641 327.991 237.418 331.427 254.066 328.19C260.417 326.959 266.532 324.777 272.573 322.477C275.855 321.231 279.175 319.926 281.978 317.818C284.633 315.777 286.727 313.096 288.064 310.026C289.4 306.956 289.935 303.598 289.619 300.265C289.002 295.185 286.466 290.533 282.531 287.26C281.233 286.155 279.529 284.039 277.972 283.346C275 282.041 272.086 284.304 269.563 285.491Z" fill="#AB7D8B"/>
        <g opacity="0.1">
            <path opacity="0.1" d="M248.01 191.313C246.778 190.222 246.476 188.563 245.414 187.354C243.201 184.796 238.731 185.142 235.087 185.658C228.736 186.55 221.072 186.757 217.133 182.341C215.429 180.439 214.677 177.918 212.597 176.333C207.743 172.647 199.394 176.421 194.046 173.303C189.377 170.583 189.679 164.272 185.784 160.77C181.89 157.269 175.141 157.726 169.852 159.473C168.957 159.884 167.954 159.997 166.99 159.797C165.316 159.207 165.434 157.128 165.847 155.595C167.86 148.186 169.911 140.703 173.828 133.892C175.251 131.407 176.933 129.011 177.848 126.343C179.448 121.669 178.63 116.383 180.732 111.96C178.475 113.434 176.306 115.041 174.912 117.12C171.77 121.801 172.987 127.758 171.224 132.955C170.309 135.624 168.627 138.02 167.204 140.504C163.287 147.316 161.236 154.799 159.223 162.208C158.81 163.741 158.692 165.82 160.366 166.41C161.33 166.61 162.333 166.496 163.228 166.086C168.517 164.338 175.237 163.837 179.161 167.383C183.085 170.929 182.753 177.217 187.422 179.916C192.77 183.034 201.12 179.267 205.973 182.946C208.053 184.523 208.806 187.052 210.51 188.954C214.478 193.377 222.112 193.163 228.463 192.271C232.107 191.755 236.577 191.409 238.79 193.967C239.852 195.176 240.155 196.835 241.386 197.926C243.599 199.901 247.649 198.899 249.81 196.871C251.196 195.429 252.382 193.808 253.336 192.05C251.418 192.632 249.375 192.544 248.01 191.313Z" fill="#5A5A54"/>
            <path opacity="0.1" d="M261.45 183.204C260.975 183.815 260.534 184.453 260.129 185.113C262.962 183.093 265.964 181.206 268.081 178.633C268.63 177.967 269.124 177.257 269.556 176.51C266.613 178.618 263.544 180.557 261.45 183.204Z" fill="#5A5A54"/>
        </g>
        <path d="M410.471 329.185L412.684 540.764L423.011 539.29L420.798 329.185H410.471Z" fill="#5A5A54"/>
        <path d="M472.431 367.52L474.644 579.099L484.971 577.624L482.758 367.52H472.431Z" fill="#5A5A54"/>
        <path d="M665.341 474.401L665.297 470.339V467.921L664.906 430.706L664.294 372.526L664.19 367.505H653.864L653.915 372.342L654.24 403.503L654.38 416.994L654.498 427.92L654.69 446.807L654.808 457.946V459.126L654.963 473.767L655.096 486.675L655.936 485.746C657.289 484.237 658.612 482.704 659.905 481.146L665.341 474.401Z" fill="#5A5A54"/>
        <path d="M460.998 401.8L455.097 410.617L460.998 450.788L511.156 464.507H592.295L640.978 467.449L664.168 451.584L660.156 424.337L642.453 401.8H460.998Z" fill="#888EB6"/>
        <path d="M455.097 410.617L452.147 435.107C452.147 435.107 436.657 483.122 561.315 480.18C685.972 477.239 664.581 467.441 664.581 467.441L663.844 439.029C663.844 439.029 668.188 452.476 604.834 450.655C541.48 448.834 482.389 442.951 482.389 442.951C482.389 442.951 460.261 446.866 455.097 410.617Z" fill="#5A5A54"/>
        <path d="M558.954 191.106C551.843 194.343 546.459 200.616 542.852 207.554C539.245 214.491 537.216 222.106 535.217 229.67C533.108 237.646 530.991 245.645 529.899 253.821C527.952 268.358 529.412 283.641 536.095 296.697C542.778 309.753 555.126 320.287 569.583 322.801C575.167 323.782 580.906 323.583 586.548 323C596.748 321.921 606.795 319.708 616.503 316.402C626.646 312.974 637.201 307.696 641.715 297.972C644.334 292.332 644.555 285.904 644.43 279.697C644.082 262.778 641.525 245.978 636.825 229.721C635.46 225.003 633.874 220.248 630.983 216.275C628.091 212.301 624.138 209.389 620.103 206.691C602.85 195.08 580.175 181.464 558.954 191.106Z" fill="#FFDEED"/>
        <path opacity="0.05" d="M558.954 191.106C551.843 194.343 546.459 200.616 542.852 207.554C539.245 214.491 537.216 222.106 535.217 229.67C533.108 237.646 530.991 245.645 529.899 253.821C527.952 268.358 529.412 283.641 536.095 296.697C542.778 309.753 555.126 320.287 569.583 322.801C575.167 323.782 580.906 323.583 586.548 323C596.748 321.921 606.795 319.708 616.503 316.402C626.646 312.974 637.201 307.696 641.715 297.972C644.334 292.332 644.555 285.904 644.43 279.697C644.082 262.778 641.525 245.978 636.825 229.721C635.46 225.003 633.874 220.248 630.983 216.275C628.091 212.301 624.138 209.389 620.103 206.691C602.85 195.08 580.175 181.464 558.954 191.106Z" fill="#5A5A54"/>
        <path d="M550.966 283.899C553.024 286.726 555.513 289.214 558.342 291.271C565.364 296.122 574.378 296.778 582.905 297.043C589.75 297.25 597.598 296.859 601.891 291.521C603.824 289.118 604.694 286.051 605.476 283.066C610.301 264.732 613.728 246.059 615.729 227.207L635.261 227.274C643.714 263.449 643.021 301.054 642.283 338.201L641.214 392.371L628.63 391.037C598.749 387.875 568.824 384.712 538.78 384.166C521.177 383.843 503.569 384.424 486.026 385.906L513.428 304.474C516.984 293.888 520.576 283.162 521.409 272.037C522.612 255.9 518.083 238.863 524.36 223.934C524.861 222.733 525.496 221.487 526.639 220.86C527.782 220.233 529.228 220.388 530.541 220.558C533.019 220.89 540.595 220.558 542.395 222.143C545.05 224.443 543.294 224.789 542.358 228.498C540.683 235.132 539.097 241.273 539.12 248.188C539.142 260.743 543.036 273.998 550.966 283.899Z" fill="#888EB6"/>
        <path d="M665.341 474.401C668.631 470.036 671.732 465.517 674.643 460.843C673.167 457.688 671.545 454.607 670.254 451.385C668.277 446.446 667.141 441.211 666.02 436.014C665.636 434.245 665.255 432.476 664.877 430.706C660.746 411.458 656.866 391.937 656.062 372.423C655.988 370.801 655.942 369.179 655.922 367.557C655.922 367.321 655.922 367.093 655.922 366.82C655.922 365.043 655.922 363.266 655.922 361.497C656.01 357.074 656.291 352.614 656.8 348.176C656.895 347.306 657.006 346.436 657.124 345.566C657.124 345.374 657.168 345.19 657.198 344.998L707.356 343.17L711.575 343.015C714.474 342.912 717.543 342.75 719.933 341.106C723.953 338.349 724.425 332.695 724.358 327.836C724.114 315.557 722.721 303.328 720.198 291.308C718.295 282.27 715.581 273.032 709.488 266.088C704.487 260.382 697.243 256.231 694.64 249.132C693.673 246.493 693.43 243.596 692.176 241.074C690.922 238.553 688.849 236.703 686.895 234.756C680.015 227.944 674.308 220.043 670.003 211.372C667.016 205.357 663.778 198.722 659.876 194.564C659.684 194.35 659.492 194.151 659.293 193.959C655.973 190.679 652.175 189.241 647.675 191.475C646.866 191.881 646.096 192.359 645.374 192.905C643.77 194.13 642.304 195.524 641 197.063C636.455 202.286 632.467 207.969 629.102 214.019C626.736 218.278 624.704 222.715 623.024 227.289C621.698 230.902 620.602 234.595 619.742 238.347C619.107 241.126 618.606 243.935 618.207 246.751C616.732 257.337 616.732 268.13 616.939 278.849C617.16 288.698 617.595 298.569 618.488 308.381C618.709 310.755 618.955 313.127 619.225 315.495C619.766 320.179 620.435 324.848 621.232 329.502C621.549 331.279 621.873 333.056 622.235 334.825C622.323 335.297 622.419 335.769 622.515 336.233L622.559 336.432C623.534 340.545 624.29 344.706 624.824 348.898C624.883 349.424 624.927 349.948 624.957 350.469C625.081 352.878 625.061 355.293 624.898 357.701C624.728 360.546 624.462 363.384 624.33 366.23C624.33 366.731 624.33 367.225 624.278 367.705C624.241 369.142 624.278 370.58 624.278 372.017C624.428 375.456 624.837 378.879 625.502 382.257C626.746 388.539 628.896 394.608 631.883 400.274C632.163 400.805 632.451 401.329 632.738 401.845C636.478 408.524 641.199 414.65 644.658 421.484C647.642 427.634 649.872 434.121 651.297 440.806C651.789 443.013 652.256 445.224 652.698 447.441C653.384 450.979 653.997 454.548 654.624 458.116C654.683 458.47 654.749 458.853 654.815 459.177C655.649 463.91 656.527 468.621 657.655 473.243C658.312 475.934 659.049 478.588 659.912 481.198L665.341 474.401Z" fill="#464353"/>
        <path d="M655.487 416.294C655.487 416.957 655.442 417.621 655.413 418.292C655.281 421.526 654.983 424.752 654.52 427.956C653.909 432.33 652.839 436.627 651.326 440.777C650.324 443.505 649.049 446.126 647.52 448.598C646.165 450.794 644.577 452.838 642.785 454.695C638.359 459.295 631.986 460.762 625.819 462.701C622.982 463.522 620.24 464.641 617.639 466.041C617.175 466.299 616.717 466.579 616.275 466.874L608.559 471.983C606.155 473.568 603.698 475.212 602.046 477.563C601.775 477.963 601.529 478.379 601.308 478.809C600.264 480.974 599.501 483.263 599.036 485.621C595.024 502.326 591.004 519.046 588.252 536.002C588.068 537.122 587.891 538.25 587.699 539.378L587.633 539.732C587.6 539.648 587.56 539.567 587.515 539.489C567.776 551.417 547.307 562.18 526.219 570.798L521.638 532.463C521.161 529.347 521.002 526.19 521.166 523.042C521.601 518.08 523.622 513.377 524.168 508.43C524.685 503.587 523.769 498.699 521.535 494.372C520.664 492.691 519.573 491.039 519.373 489.16C519.174 487.28 520.259 485.562 522.147 485.37C523.622 483.734 523.74 481.5 523.305 479.288C523.074 478.134 522.728 477.005 522.272 475.919C521.018 472.838 519.432 469.483 520.509 466.336C520.794 465.765 520.922 465.129 520.878 464.493C520.886 464.454 520.886 464.414 520.878 464.375C520.627 463.549 519.646 463.188 519.137 462.487C518.178 461.182 519.137 459.406 519.728 457.902C520.301 456.286 520.634 454.594 520.716 452.881C520.797 451.93 520.856 450.972 520.959 450.029C521.103 448.752 521.332 447.486 521.645 446.239C523.437 439.177 527.747 433.012 533.764 428.9C536.634 426.969 539.828 425.561 542.756 423.74C545.756 421.719 548.619 419.502 551.327 417.105C557.823 411.699 564.577 406.602 571.59 401.815C579.13 396.669 586.94 391.929 594.987 387.617C596.708 386.688 598.429 385.783 600.15 384.904C602.024 383.921 603.91 382.989 605.808 382.11C611.886 379.212 618.783 380.296 625.502 382.227C628.32 383.031 631.101 383.989 633.786 384.859C636.408 385.711 638.93 386.843 641.31 388.236C647.262 391.73 652.182 396.891 654.225 403.407C654.229 403.449 654.229 403.491 654.225 403.533C655.523 407.617 655.605 411.996 655.487 416.294Z" fill="#DDACBB"/>
        <path opacity="0.1" d="M655.487 416.294C655.487 416.957 655.442 417.621 655.413 418.292C655.281 421.526 654.983 424.752 654.52 427.956C653.909 432.33 652.839 436.627 651.326 440.777C650.324 443.505 649.049 446.126 647.52 448.598C646.165 450.794 644.577 452.838 642.785 454.695C638.359 459.295 631.986 460.762 625.819 462.701C622.982 463.522 620.24 464.641 617.639 466.041C617.175 466.299 616.717 466.579 616.275 466.874L608.559 471.983C606.155 473.568 603.698 475.212 602.046 477.563C601.775 477.963 601.529 478.379 601.308 478.809C600.264 480.974 599.501 483.263 599.036 485.621C595.024 502.326 591.004 519.046 588.252 536.002C588.068 537.122 587.891 538.25 587.699 539.378L587.633 539.732C587.6 539.648 587.56 539.567 587.515 539.489C567.776 551.417 547.307 562.18 526.219 570.798L521.638 532.463C521.161 529.347 521.002 526.19 521.166 523.042C521.601 518.08 523.622 513.377 524.168 508.43C524.685 503.587 523.769 498.699 521.535 494.372C520.664 492.691 519.573 491.039 519.373 489.16C519.174 487.28 520.259 485.562 522.147 485.37C523.622 483.734 523.74 481.5 523.305 479.288C523.074 478.134 522.728 477.005 522.272 475.919C521.018 472.838 519.432 469.483 520.509 466.336C520.794 465.765 520.922 465.129 520.878 464.493C520.886 464.454 520.886 464.414 520.878 464.375C520.627 463.549 519.646 463.188 519.137 462.487C518.178 461.182 519.137 459.406 519.728 457.902C520.301 456.286 520.634 454.594 520.716 452.881C520.797 451.93 520.856 450.972 520.959 450.029C521.103 448.752 521.332 447.486 521.645 446.239C523.437 439.177 527.747 433.012 533.764 428.9C536.634 426.969 539.828 425.561 542.756 423.74C545.756 421.719 548.619 419.502 551.327 417.105C557.823 411.699 564.577 406.602 571.59 401.815C579.13 396.669 586.94 391.929 594.987 387.617C596.708 386.688 598.429 385.783 600.15 384.904C602.024 383.921 603.91 382.989 605.808 382.11C611.886 379.212 618.783 380.296 625.502 382.227C628.32 383.031 631.101 383.989 633.786 384.859C636.408 385.711 638.93 386.843 641.31 388.236C647.262 391.73 652.182 396.891 654.225 403.407C654.229 403.449 654.229 403.491 654.225 403.533C655.523 407.617 655.605 411.996 655.487 416.294Z" fill="#5A5A54"/>
        <path d="M585.45 294.183C585.375 294.012 585.266 293.857 585.131 293.729C584.995 293.601 584.834 293.501 584.659 293.436C584.484 293.372 584.297 293.343 584.111 293.352C583.924 293.361 583.741 293.408 583.573 293.489C583.405 293.571 583.255 293.686 583.132 293.827C583.009 293.967 582.917 294.132 582.859 294.309C582.801 294.487 582.78 294.674 582.797 294.86C582.814 295.047 582.868 295.227 582.956 295.392L582.219 295.753L604.215 340.811L608.19 338.872L586.195 293.785L585.45 294.183Z" fill="#5A5A54"/>
        <path d="M612.948 246.987C639.02 246.987 660.156 225.863 660.156 199.805C660.156 173.748 639.02 152.624 612.948 152.624C586.876 152.624 565.74 173.748 565.74 199.805C565.74 225.863 586.876 246.987 612.948 246.987Z" fill="#FFDEED"/>
        <path d="M675.255 170.597C675.034 166.847 674.476 163.124 673.588 159.473C670.814 147.552 665.747 135.816 657.021 127.257C656.483 125.164 655.841 123.1 655.096 121.072C655.082 121.021 655.064 120.972 655.044 120.924C652.441 113.779 648.678 107.111 643.906 101.189C641.14 97.7538 637.555 94.3626 633.144 94.2299C631.905 94.1857 630.592 94.3995 629.456 93.8318C628.621 93.292 627.917 92.5715 627.398 91.7234C625.214 88.9647 622.317 86.8548 619.02 85.6218C615.723 84.3888 612.152 84.0795 608.692 84.7273L608.235 84.8232C607.976 84.8748 607.718 84.9337 607.497 85.0001C607.276 85.0664 606.877 85.177 606.568 85.2729C606.907 85.8331 607.239 86.4008 607.563 86.9758C608.439 88.5338 609.25 90.1261 609.998 91.7529C610.617 93.1094 611.19 94.4879 611.716 95.8886C604.163 96.7512 598.011 102.111 592.39 107.212L579.158 119.214C579.134 119.234 579.111 119.256 579.091 119.28L578.708 119.649C578.612 119.745 578.516 119.841 578.427 119.944C578.392 119.974 578.359 120.009 578.331 120.047C578.221 120.165 578.118 120.29 578.014 120.416C577.83 120.648 577.665 120.894 577.52 121.153C577.448 121.263 577.384 121.379 577.328 121.499C577.308 121.535 577.291 121.572 577.277 121.61C577.229 121.71 577.187 121.814 577.151 121.919C577.148 121.934 577.148 121.949 577.151 121.964C577.131 122.024 577.113 122.086 577.1 122.148C576.949 122.667 576.994 123.223 577.225 123.711L585.951 123.807H586.976C587.021 124.971 587.058 126.144 587.102 127.308C585.717 128.344 584.388 129.452 583.119 130.626C581.735 131.906 580.436 133.275 579.231 134.725C571.361 144.227 567.252 156.502 566.839 168.857C566.839 169.241 566.839 169.595 566.839 169.993C566.839 171.121 566.839 172.249 566.839 173.369C566.839 174.106 566.906 174.844 566.965 175.581C566.968 176.541 567.223 177.484 567.702 178.316C567.765 178.409 567.834 178.497 567.909 178.581C568.351 179.061 568.882 179.452 569.473 179.731L570.107 180.041C570.424 180.196 570.727 180.343 571.022 180.513C573.802 182.083 575.447 185.113 577.977 187.059C578.125 187.17 578.272 187.28 578.42 187.376L578.752 187.597L578.958 187.73L579.239 187.892C579.423 188.003 579.612 188.104 579.807 188.194L580.161 188.371H580.22C580.515 188.504 580.81 188.629 581.112 188.74L581.533 188.887L581.658 188.932C581.776 188.968 581.902 189.013 582.027 189.042C582.278 189.116 582.524 189.182 582.765 189.241L583.502 189.403C583.79 189.455 584.085 189.507 584.38 189.544L584.815 189.602L585.258 189.647C585.961 189.711 586.669 189.747 587.382 189.757C589.62 189.744 591.854 189.588 594.072 189.293L612.896 187.081C617.167 186.587 621.527 186.093 625.738 186.963C629.308 187.701 632.598 189.396 636.065 190.598C636.847 190.87 637.629 191.121 638.418 191.335C638.706 191.416 639.001 191.504 639.296 191.578L639.701 191.681L640.646 191.91C640.985 191.991 641.324 192.072 641.664 192.138C642.143 192.242 642.615 192.33 643.095 192.419C643.419 192.485 643.751 192.537 644.083 192.596H644.149L645.093 192.743H645.322L646.023 192.839C646.362 192.89 646.702 192.935 647.048 192.972C647.801 193.065 648.553 193.146 649.305 193.215C650.522 193.333 651.747 193.421 652.993 193.495L654.218 193.569L655.442 193.628L659.13 193.79H659.293H659.809C661.342 193.897 662.883 193.817 664.397 193.554C664.663 193.502 664.921 193.443 665.179 193.37C665.437 193.296 665.651 193.222 665.917 193.134C668.683 192.072 670.704 189.632 672.105 187.022C672.4 186.469 672.673 185.916 672.924 185.349C673.175 184.781 673.403 184.206 673.61 183.631C673.868 182.894 674.089 182.194 674.281 181.456C674.34 181.257 674.392 181.058 674.436 180.852C674.48 180.645 674.584 180.24 674.643 179.93C674.827 179.083 674.967 178.227 675.07 177.365C675.07 177.092 675.137 176.812 675.166 176.539C675.233 175.802 675.284 175.116 675.314 174.394C675.314 173.848 675.314 173.295 675.314 172.743C675.306 172.145 675.255 171.357 675.255 170.597ZM656.342 126.586C655.745 126.026 655.133 125.488 654.513 124.979C655.202 125.414 655.817 125.956 656.335 126.586H656.342Z" fill="#464353"/>
        <path d="M522.346 197.21C516.792 196.525 511.282 194.092 505.801 195.286C502.371 196.024 499.421 198.154 496.677 200.344C486.466 208.523 477.783 218.444 471.03 229.648C469.885 231.323 469.08 233.206 468.662 235.191C468.308 237.491 468.935 239.828 469.68 242.033C474.725 256.932 485.517 269.376 490.429 284.319C495.593 300.036 493.8 317.213 489.994 333.314C485.276 353.19 477.608 372.249 467.246 389.858C465.839 392.476 464.077 394.887 462.009 397.023C459.324 399.603 455.717 401.447 454.124 404.823C453.386 406.297 453.172 407.978 452.648 409.556C451.173 413.979 447.603 417.768 447.256 422.435C446.998 425.996 448.687 429.365 449.713 432.756C451.442 438.582 451.258 444.808 449.189 450.522C445.449 460.77 435.668 470.088 438.508 480.623C444.844 478.802 451.866 476.435 454.854 470.56C455.909 468.481 456.432 466.004 458.21 464.485C461.758 461.47 467.799 464.198 471.568 461.426C474.415 459.317 474.519 454.997 473.25 451.68C471.981 448.362 469.798 445.443 468.824 442.03C467.128 435.874 469.842 429.365 469.341 423.002C469.105 420.054 468.197 417.23 468.131 414.296C468.006 408.597 471.163 403.238 475.36 399.368C479.557 395.497 484.742 392.932 489.847 390.403L509.143 380.819C516.143 377.355 523.814 373.13 526.108 365.67C526.978 362.876 526.986 359.897 527.03 356.978C527.686 312.37 538.869 268.661 549.985 225.453C551.711 218.759 553.466 212.036 556.033 205.607C558.6 199.179 563.623 194.018 566.183 188.047C551.335 186.307 537.77 199.142 522.346 197.21Z" fill="#464353"/>
        <path d="M628.718 477.062C630.422 487.383 631.462 497.925 632.274 508.415C618.997 519.414 604.701 528.983 590.178 537.859C589.352 538.368 588.518 538.869 587.685 539.334L587.618 539.688C587.585 539.604 587.545 539.522 587.5 539.444C586.373 537.011 584.403 535.068 581.953 533.974C576.51 522.548 571.071 511.121 565.637 499.694C562.687 493.524 559.736 487.294 558.261 480.637C558.261 480.497 558.194 480.35 558.172 480.21C557.051 475.049 556.793 469.69 556.048 464.463C555.671 461.469 554.996 458.521 554.034 455.661C553.149 453.117 551.932 450.648 550.855 448.163C549.527 445.097 548.414 441.993 548.362 438.683C548.362 437.629 548.428 436.471 547.912 435.587C547.36 434.825 546.678 434.166 545.898 433.64C544.925 432.777 544.186 431.681 543.753 430.455C543.319 429.229 543.205 427.912 543.42 426.63C538.994 426.858 536.501 431.613 534.723 435.646C533.107 439.59 530.985 443.307 528.409 446.704C526.532 449.13 524.145 451.116 521.417 452.52C521.173 452.638 520.93 452.756 520.679 452.859C514.52 455.572 507.328 454.614 500.653 453.39C494.818 452.321 488.784 450.994 484.093 447.367L483.591 446.969C482.203 445.816 480.964 444.493 479.903 443.032C475.972 437.666 474.231 430.596 473.265 423.865C473.176 423.231 473.088 422.597 473.007 421.963C472.336 417.207 472.151 412.396 472.453 407.602C472.542 406.423 472.667 405.243 472.822 404.071C472.926 403.334 473.036 402.538 473.162 401.771C473.158 401.749 473.158 401.727 473.162 401.705C473.353 400.488 473.56 399.264 473.766 398.019C474.504 393.839 475.242 389.548 477.455 385.95C478.911 383.712 480.748 381.746 482.883 380.141C483.68 379.515 484.499 378.917 485.325 378.342C486.667 377.414 488.047 376.529 489.448 375.696C492.974 373.587 496.676 371.786 500.513 370.314C501.427 369.96 502.357 369.629 503.286 369.312C506.899 368.027 510.787 367.72 514.557 368.42C517.897 368.903 521.273 369.1 524.647 369.009C533.3 368.84 541.989 367.188 550.626 366.12C562.62 364.645 575.506 364.468 585.966 370.543C586.467 370.83 586.954 371.133 587.441 371.45C592.604 374.826 596.765 379.559 600.121 384.845C600.858 385.958 601.5 387.1 602.135 388.258C603.597 390.915 604.919 393.646 606.096 396.441C606.792 397.813 607.168 399.326 607.195 400.864C607.178 401.157 607.138 401.447 607.077 401.734C606.877 402.781 606.479 403.798 606.339 404.86C605.874 408.878 609.289 412.232 610.566 416.058C611.392 418.55 611.303 421.218 611.768 423.843C612.439 427.529 614.246 430.846 615.869 434.164C618.433 439.504 620.627 445.014 622.434 450.655C623.717 454.584 624.816 458.573 625.783 462.598C626.097 463.89 626.395 465.185 626.675 466.483C627.479 470.051 628.136 473.545 628.718 477.062Z" fill="#DDACBB"/>
        <path d="M707.363 367.889V373.049L706.412 373.035L705.35 373.02L693.489 372.872L664.264 372.489L656.062 372.386L653.938 372.356L641.627 372.201L624.278 371.973L587.471 371.494L523.6 370.668L500.549 370.373L491.3 370.255L482.787 370.145L477.484 370.071L472.461 370.005L435.218 369.525L424.892 369.393L422.642 369.363L421.181 365.596L410.567 338.238L408.627 333.24L410.102 327.342L416.741 331.766L420.827 332.274L488.106 340.634L500.734 342.204L527.509 345.537L553.739 348.795L564.022 350.07L624.868 357.634L641.87 359.75L655.944 361.497L705.984 367.719L707.363 367.889Z" fill="#5A5A54"/>
        <path d="M410.102 327.342L423.379 361.991L707.363 367.889V330.291L410.102 327.342Z" fill="#504F60"/>
        <path d="M424.855 365.677L427.068 577.256L437.394 575.781L435.181 365.677H424.855Z" fill="#5A5A54"/>
        <path d="M706.412 373.027H705.35C703.63 386.218 700.785 399.238 696.845 411.944L693.489 372.872L693.349 371.206L705.755 369.776L706.169 369.732L706.412 373.027Z" fill="#5A5A54"/>
        <path d="M666.057 347.984L557.995 350.196L524.434 339.138L614.423 333.977L666.057 347.984Z" fill="white"/>
        <path d="M530.504 304.99C529.359 305.43 528.343 306.152 527.554 307.091C526.936 308.108 526.56 309.253 526.455 310.438L524.64 321.253C524.363 322.242 524.412 323.294 524.78 324.253C525.252 325.16 526.624 325.632 527.31 324.88C527.222 326.996 527.406 329.252 528.638 330.977C529.87 332.702 532.452 333.609 534.192 332.407C534.465 332.852 534.832 333.232 535.266 333.52C535.701 333.809 536.193 334 536.709 334.08C537.224 334.16 537.751 334.127 538.253 333.983C538.755 333.84 539.219 333.588 539.614 333.247C538.566 333.601 538.493 335.201 539.238 336.012C540.072 336.748 541.135 337.173 542.247 337.214C555.209 339.04 568.424 337.378 580.53 332.4C581.673 331.928 578.663 317.84 578.361 316.395C577.623 312.996 577.255 308.846 574.385 306.56C567.525 301.09 555.34 300.014 546.983 300.663C541.273 301.095 535.689 302.561 530.504 304.99Z" fill="#FFDEED"/>
        <path opacity="0.1" d="M640.454 306.627C613.774 307.136 586.541 307.571 561.079 299.587C563.511 309.007 563.343 318.91 560.592 328.242L685.338 338.563C690.627 338.998 712.556 341.475 717.712 340.229C722.868 338.983 674.451 323.044 676.406 318.113C681.783 304.526 699.796 296.564 686.821 296.055C670.446 295.407 656.955 306.317 640.454 306.627Z" fill="#5A5A54"/>
        <path d="M641.192 308.101C614.512 308.61 587.279 309.045 561.816 301.061C564.248 310.481 564.08 320.384 561.329 329.716L686.076 340.037C691.365 340.472 713.294 342.986 718.45 341.703C723.606 340.42 722.396 334.103 724.351 329.171C729.728 315.584 700.533 298.038 687.558 297.53C671.183 296.881 657.692 307.792 641.192 308.101Z" fill="#464353"/>
        <path d="M598.771 310.151C599.917 310.589 600.932 311.312 601.721 312.252C602.338 313.27 602.716 314.414 602.828 315.599L604.642 326.414C604.915 327.403 604.866 328.454 604.502 329.414C604.03 330.321 602.651 330.793 601.972 330.041C602.053 332.156 601.876 334.412 600.644 336.137C599.413 337.862 596.831 338.769 595.083 337.567C594.81 338.012 594.443 338.392 594.009 338.681C593.574 338.97 593.082 339.161 592.567 339.241C592.051 339.321 591.524 339.288 591.022 339.144C590.521 339 590.056 338.749 589.661 338.408C590.709 338.762 590.79 340.361 590.045 341.172C589.208 341.908 588.142 342.333 587.028 342.374C574.068 344.2 560.856 342.538 548.753 337.56C547.61 337.088 550.612 323 550.921 321.555C551.659 318.157 552.028 314.006 554.897 311.721C561.75 306.251 573.943 305.175 582.3 305.823C588.007 306.256 593.588 307.722 598.771 310.151Z" fill="#FFDEED"/>
        <path d="M422.48 286.671C420.031 289.826 417.575 293.047 415.996 296.726C412.979 303.744 413.422 311.691 413.923 319.314C414.063 321.526 414.24 323.782 415.399 325.617C416.4 327.004 417.72 328.129 419.249 328.898C425.637 332.525 433.116 333.609 440.419 334.42C451.601 335.658 462.823 336.412 474.084 336.683C501.98 337.361 530.305 335.083 557.479 341.401C554.115 336.292 554.123 329.532 556.004 323.708C557.885 317.884 561.506 312.812 565.054 307.821C552.618 303.884 539.282 310.033 526.256 309.421C512.882 308.794 500.505 301.068 487.117 301.076C484.241 301.076 481.312 301.437 478.517 300.744C475.721 300.051 473.014 297.943 472.756 295.075C476.326 295.878 479.712 292.826 481.187 289.479C482.662 286.132 482.928 282.351 484.359 278.982C487.921 270.6 497.547 266.714 503.537 259.814C504.481 258.723 505.374 257.433 505.344 255.988C505.203 254.764 504.688 253.613 503.869 252.693C498.89 246.058 491.388 242.372 485.155 237.211C482.987 235.413 478.613 228.63 476.178 228.004C471.664 226.846 467.836 233.363 464.9 236.541C450.079 252.636 435.939 269.346 422.48 286.671Z" fill="#464353"/>
        <path opacity="0.07" d="M570.8 284.798C572.67 286.184 574.332 287.83 575.735 289.686C576.434 290.618 576.932 291.685 577.198 292.819C577.463 293.954 577.49 295.131 577.277 296.276C577.048 294.14 577.524 291.987 578.634 290.146C579.743 288.305 581.424 286.878 583.421 286.081L570.8 284.798Z" fill="#5A5A54"/>
        <g opacity="0.1">
            <path opacity="0.1" d="M611.709 91.4728C610.841 89.1686 609.841 86.9164 608.714 84.7273C607.986 84.8673 607.266 85.0519 606.56 85.2802C607.826 87.381 608.966 89.5547 609.975 91.7898C610.543 91.6423 611.119 91.5391 611.709 91.4728Z" fill="#5A5A54"/>
            <path opacity="0.1" d="M654.506 120.541C654.705 120.703 654.897 120.887 655.088 121.057C655.074 121.009 655.057 120.962 655.037 120.917C654.87 120.794 654.692 120.669 654.506 120.541Z" fill="#5A5A54"/>
            <path opacity="0.1" d="M585.936 123.785C586.32 123.482 586.674 123.165 587.087 122.87L586.969 119.369L579.091 119.288C577.815 120.46 576.458 122.141 577.21 123.711L585.936 123.785Z" fill="#5A5A54"/>
            <path opacity="0.1" d="M672.061 182.732C670.66 185.341 668.638 187.789 665.872 188.843C663.741 189.654 661.395 189.58 659.116 189.477C651.341 189.16 643.434 188.814 636.087 186.241C632.65 185.032 629.36 183.344 625.761 182.599C621.549 181.729 617.189 182.223 612.919 182.724L594.094 184.936C588.54 185.585 582.352 186.071 577.918 182.665C575.381 180.719 573.744 177.689 570.963 176.126C569.79 175.463 568.396 175.035 567.636 173.915C567.156 173.083 566.902 172.14 566.898 171.18C566.839 170.406 566.803 169.632 566.773 168.857C566.693 171.107 566.735 173.358 566.898 175.603C566.902 176.563 567.156 177.506 567.636 178.338C568.374 179.451 569.79 179.879 570.963 180.55C573.744 182.112 575.388 185.142 577.918 187.089C582.344 190.494 588.54 190.037 594.094 189.359L612.919 187.148C617.189 186.646 621.549 186.152 625.761 187.022C629.331 187.759 632.62 189.455 636.087 190.664C643.463 193.237 651.341 193.613 659.116 193.9C661.395 193.996 663.741 194.077 665.872 193.266C668.638 192.212 670.66 189.765 672.061 187.155C674.775 182.105 675.535 176.377 675.248 170.605C675.09 174.832 674.002 178.972 672.061 182.732Z" fill="#5A5A54"/>
        </g>
        <path opacity="0.1" d="M611.495 96.213L621.822 105.797C621.822 105.797 612.97 102.111 611.495 96.213Z" fill="#5A5A54"/>
    </g>
    <defs>
        <clipPath id="clip0">
            <rect width="725" height="592" fill="white"/>
        </clipPath>
    </defs>
</svg>
