<svg width="230" height="125" viewBox="0 0 230 125" fill="none" xmlns="http://www.w3.org/2000/svg">
    <g clip-path="url(#clip0)">
        <path opacity="0.1" d="M226.659 115.978C225.77 118.172 224.675 120.277 223.39 122.265C222.787 123.213 222.126 124.122 221.41 124.988C221.403 124.997 221.396 125.005 221.388 125.012H0L0.0298809 124.988C0.229087 124.833 1.39843 123.887 3.21718 122.265C4.52198 121.104 6.15946 119.594 7.99813 117.777C23.0362 102.986 51.9231 67.9754 27.865 35.9031C5.50009 6.08792 29.5801 0.677469 45.4649 0.0459852C51.5679 -0.193103 57.6564 0.802222 63.3655 2.97233C70.7043 5.76122 84.1168 10.0362 101.591 11.9964C102.165 12.0601 102.743 12.1239 103.328 12.1816C112.58 13.1236 121.894 13.2929 131.173 12.6876V12.6876C131.446 12.6717 131.721 12.6518 131.998 12.6318C141.178 11.9872 150.288 10.578 159.234 8.41863C159.813 8.27719 160.385 8.14372 160.955 8.01026C190.762 1.11373 218.24 24.6181 211.37 51.1803C208.83 61.0051 209.475 71.4774 217.944 79.9497C231.808 93.7786 230.129 107.398 226.659 115.978Z" fill="#2F3759"/>
        <path d="M226.659 115.974C225.77 118.168 224.675 120.273 223.39 122.261C222.787 123.209 222.126 124.118 221.41 124.984H0.0297852C0.228991 124.829 1.39833 123.882 3.21709 122.261C4.52189 121.1 6.15936 119.59 7.99804 117.773L31.3311 112.952C31.6326 112.89 31.9396 112.858 32.2474 112.858L57.1223 112.823H57.1482L69.4691 112.807H69.497L79.8956 112.795H86.7025H93.6747L122.245 112.755H122.291H124.504H128.392H133.247H134.538L139.444 112.699H141.066L155.337 112.679H159.895H162.086L178.57 112.657H183.479L199.093 112.635L212.272 112.619C212.639 112.62 213.005 112.663 213.362 112.749L226.659 115.974Z" fill="#454B69"/>
        <path opacity="0.4" d="M3.21709 122.261H223.39C222.787 123.209 222.126 124.118 221.41 124.984H0.0297852C0.225007 124.819 1.39435 123.872 3.21709 122.261Z" fill="black"/>
        <path d="M146.062 60.3078L145.62 60.3934L125.627 64.2341C119.821 65.3497 113.93 66.4712 108.032 66.0429C103.759 65.7322 99.7665 64.4652 95.6609 63.3536C93.3401 62.7241 90.8799 62.4731 90.0931 59.8755C89.0074 56.2898 90.7743 50.9809 91.1907 47.3474C91.5891 43.7816 91.8242 40.1262 91.115 36.6022C90.9574 35.8103 90.7498 35.0292 90.4935 34.2635C89.7823 32.1539 88.6647 29.9607 89.2683 27.8192C89.7444 26.12 91.1967 24.9068 92.5552 23.7833C95.2166 21.592 97.9338 19.1358 98.9896 15.8509C99.5075 14.2572 99.6052 12.542 100.163 10.9603C101.221 7.95232 103.878 5.70328 106.834 4.51203C109.791 3.32077 113.042 3.06778 116.231 3.06778C119.047 3.06794 121.86 3.25494 124.651 3.62755C127.695 4.02596 130.767 4.68135 133.442 6.19134C136.118 7.70132 138.373 10.1755 138.996 13.1915C139.879 17.4565 137.428 21.9984 138.743 26.1399C139.405 28.2335 140.934 29.9248 141.996 31.8412C142.862 33.4442 143.396 35.2051 143.567 37.0189C143.739 38.8327 143.543 40.6624 142.992 42.3991C141.721 46.3374 138.61 50.3215 140.203 54.1403C141.217 56.5687 143.807 57.8655 145.612 59.7898C145.773 59.9625 145.923 60.1351 146.062 60.3078Z" fill="#454B69"/>
        <path opacity="0.1" d="M145.62 59.8057V60.3934L125.628 64.2341C119.821 65.3497 113.93 66.4712 108.032 66.0429C103.759 65.7321 99.7666 64.4652 95.661 63.3536C93.3402 62.7241 90.88 62.4731 90.0932 59.8755C89.0075 56.2897 90.7744 50.9809 91.1908 47.3474C91.5892 43.7816 97.7228 30.7634 97.0136 27.2395L133.668 28.8331C133.915 30.7794 143.602 40.5485 142.998 42.415C141.727 46.3533 138.616 50.3375 140.21 54.1562C141.225 56.5846 143.815 57.8814 145.62 59.8057Z" fill="black"/>
        <path d="M108.169 49.949C108.386 51.1821 108.502 52.5387 107.872 53.6144C107.034 55.0567 105.205 55.5168 103.569 55.8435L97.8921 56.979C97.5056 57.0567 97.0953 57.1444 96.8064 57.4093C96.4658 57.7141 96.3502 58.1962 96.3004 58.6504C96.0713 60.7062 96.7984 62.7321 97.4618 64.6903C98.8025 68.6565 99.928 72.7064 101.623 76.5331C103.318 80.3599 105.645 84.0133 108.966 86.5711C112.287 89.129 116.681 90.4915 120.747 89.4915C124.289 88.621 127.193 86.1209 129.697 83.4695C131.763 81.2782 133.695 78.8877 134.697 76.0451C135.389 74.0928 135.614 72.0131 135.831 69.9533C136.167 66.7952 136.503 63.6372 136.839 60.4791C136.996 58.997 137.1 57.3296 136.138 56.1921C135.715 55.6921 135.142 55.3595 134.556 55.0507C132.377 53.8933 130.082 52.9371 128.054 51.5427C126.026 50.1482 124.227 48.2279 123.612 45.8454C123.243 44.4151 123.309 42.8573 122.681 41.5246C121.98 40.0305 120.49 39.0185 118.896 38.5743C117.303 38.1301 115.621 38.1898 113.98 38.3751C112.339 38.5604 106.012 39.0345 105.332 40.8851C104.968 41.8811 106.48 44.0186 106.838 44.9987C107.429 46.6059 107.874 48.2626 108.169 49.949Z" fill="#DDACBB"/>
        <path opacity="0.1" d="M108.169 49.949C108.386 51.1821 108.502 52.5387 107.872 53.6144C107.034 55.0567 105.205 55.5168 103.569 55.8435L97.8921 56.979C97.5056 57.0567 97.0953 57.1444 96.8064 57.4093C96.4658 57.7141 96.3502 58.1962 96.3004 58.6504C96.0713 60.7062 96.7984 62.7321 97.4618 64.6903C98.8025 68.6565 99.928 72.7064 101.623 76.5331C103.318 80.3599 105.645 84.0133 108.966 86.5711C112.287 89.129 116.681 90.4915 120.747 89.4915C124.289 88.621 127.193 86.1209 129.697 83.4695C131.763 81.2782 133.695 78.8877 134.697 76.0451C135.389 74.0928 135.614 72.0131 135.831 69.9533C136.167 66.7952 136.503 63.6372 136.839 60.4791C136.996 58.997 137.1 57.3296 136.138 56.1921C135.715 55.6921 135.142 55.3595 134.556 55.0507C132.377 53.8933 130.082 52.9371 128.054 51.5427C126.026 50.1482 124.227 48.2279 123.612 45.8454C123.243 44.4151 123.309 42.8573 122.681 41.5246C121.98 40.0305 120.49 39.0185 118.896 38.5743C117.303 38.1301 115.621 38.1898 113.98 38.3751C112.339 38.5604 106.012 39.0345 105.332 40.8851C104.968 41.8811 106.48 44.0186 106.838 44.9987C107.429 46.6059 107.874 48.2626 108.169 49.949Z" fill="black"/>
        <path d="M121.833 71.6107L125.161 64.5628C126.721 61.2599 128.315 57.7898 128.15 54.1423C128.118 53.4172 128.11 52.5108 128.747 52.1821C129.024 52.0691 129.325 52.0306 129.622 52.0706C133.126 52.2497 136.584 52.9493 139.883 54.1463C140.522 54.3774 141.178 54.6443 141.626 55.1543C142.074 55.6642 142.255 56.3495 142.409 57.0069C142.931 59.2296 143.313 61.4831 143.55 63.754C144.148 69.3756 143.851 75.047 143.55 80.6866L142.666 97.904C142.671 98.1482 142.621 98.3905 142.52 98.6132C142.301 99.0116 141.807 99.1451 141.363 99.2208C139.652 99.5136 137.903 99.4538 136.17 99.3881C123.978 98.9259 111.723 98.2167 99.6112 99.6949C99.6657 97.9033 99.6371 96.1105 99.5256 94.3163C99.0455 86.5691 97.0375 79.0112 95.0653 71.5051C93.9159 67.1226 92.8024 62.3416 94.653 58.2121C94.9251 57.5599 95.3163 56.9641 95.8064 56.4551C96.5933 55.6842 97.667 55.2778 98.7308 54.9869C100.566 54.4878 102.466 54.2728 104.366 54.3495L116.926 81.6946C117.5 82.9456 117.972 84.2623 118.544 85.4974C119.058 83.3639 118.44 80.8639 119.058 78.5511C119.723 76.1506 120.771 73.8538 121.833 71.6107Z" fill="white"/>
        <path d="M120.52 90.4257C122.767 90.5671 124.95 89.4157 126.496 87.7882C128.042 86.1607 129.062 84.0969 129.924 82.0112C131.164 79.0382 132.15 75.9654 132.87 72.8258C133.468 70.1565 133.892 67.3935 133.48 64.6883C132.91 60.9531 130.797 57.5587 130.436 53.7976C130.374 53.1403 130.414 52.3713 130.942 51.9749C131.269 51.7299 131.699 51.696 132.106 51.6721C135.863 51.449 139.99 51.4908 142.901 53.8753C143.787 54.6004 144.506 55.5068 145.373 56.2539C147.436 58.0467 150.353 58.9591 151.678 61.3396C152.14 62.1683 152.361 63.1066 152.684 63.999C153.445 66.1106 154.761 67.9672 156.07 69.7939C154.801 75.1486 153.343 80.5072 152.074 85.8619C151.331 89.0034 150.582 92.1568 149.415 95.1648C148.65 97.137 147.687 99.149 147.923 101.261C148.016 102.091 148.293 102.886 148.534 103.687C149.379 106.498 149.775 109.424 149.707 112.358L92.8658 112.498C95.589 108.593 96.3878 103.804 96.1109 99.0533C95.9774 96.7764 95.4635 94.4855 94.3181 92.5154C92.5132 89.4277 89.3379 87.4157 86.2084 85.6926C84.0171 84.4973 81.6645 91.2225 79.2959 90.4516C79.6784 87.7464 79.8537 77.304 79.6943 74.5808C79.6425 73.6884 79.5628 72.7721 79.8377 71.9194C80.025 71.3358 80.3696 70.8139 80.6027 70.2461C81.537 67.9732 80.6465 65.0667 82.1565 63.1325C83.2003 61.7878 85.0311 61.4053 86.5191 60.5766C88.047 59.724 89.2283 58.3854 90.559 57.2419C93.1701 55.0248 96.3606 53.6003 99.7544 53.1363C100.744 54.6979 101.346 56.4739 101.509 58.3156C101.611 59.473 101.537 60.6464 101.699 61.7978C101.92 63.3576 102.565 64.8217 103.205 66.264C105.868 72.278 108.541 78.31 111.916 83.9575C112.87 85.5511 113.908 87.1448 115.291 88.3858C116.673 89.6269 118.663 90.5134 120.52 90.4257Z" fill="#2F3759"/>
        <path opacity="0.1" d="M120.52 90.4257C122.767 90.5671 124.95 89.4157 126.496 87.7882C128.042 86.1607 129.062 84.0969 129.924 82.0112C131.164 79.0382 132.15 75.9654 132.87 72.8258C133.468 70.1565 133.892 67.3935 133.48 64.6883C132.91 60.9531 130.797 57.5587 130.436 53.7976C130.374 53.1403 130.414 52.3713 130.942 51.9749C131.269 51.7299 131.699 51.696 132.106 51.6721C135.863 51.449 139.99 51.4908 142.901 53.8753C143.787 54.6004 144.506 55.5068 145.373 56.2539C147.436 58.0467 150.353 58.9591 151.678 61.3396C152.14 62.1683 152.361 63.1066 152.684 63.999C153.445 66.1106 154.761 67.9672 156.07 69.7939C154.801 75.1486 153.343 80.5072 152.074 85.8619C151.331 89.0034 150.582 92.1568 149.415 95.1648C148.65 97.137 147.687 99.149 147.923 101.261C148.016 102.091 148.293 102.886 148.534 103.687C149.379 106.498 149.775 109.424 149.707 112.358L92.8658 112.498C95.589 108.593 96.3878 103.804 96.1109 99.0533C95.9774 96.7764 95.4635 94.4855 94.3181 92.5154C92.5132 89.4277 89.3379 87.4157 86.2084 85.6926C84.0171 84.4973 81.6645 91.2225 79.2959 90.4516C79.6784 87.7464 79.8537 77.304 79.6943 74.5808C79.6425 73.6884 79.5628 72.7721 79.8377 71.9194C80.025 71.3358 80.3696 70.8139 80.6027 70.2461C81.537 67.9732 80.6465 65.0667 82.1565 63.1325C83.2003 61.7878 85.0311 61.4053 86.5191 60.5766C88.047 59.724 89.2283 58.3854 90.559 57.2419C93.1701 55.0248 96.3606 53.6003 99.7544 53.1363C100.744 54.6979 101.346 56.4739 101.509 58.3156C101.611 59.473 101.537 60.6464 101.699 61.7978C101.92 63.3576 102.565 64.8217 103.205 66.264C105.868 72.278 108.541 78.31 111.916 83.9575C112.87 85.5511 113.908 87.1448 115.291 88.3858C116.673 89.6269 118.663 90.5134 120.52 90.4257Z" fill="black"/>
        <path d="M117.514 49.4968C126.945 49.4968 134.59 41.8516 134.59 32.4208C134.59 22.99 126.945 15.3449 117.514 15.3449C108.083 15.3449 100.438 22.99 100.438 32.4208C100.438 41.8516 108.083 49.4968 117.514 49.4968Z" fill="#DDACBB"/>
        <path d="M108.553 55.1762C109.021 50.7578 107.185 46.435 105.105 42.5087C104.109 40.6321 103.041 38.7616 102.541 36.6998C102.041 34.638 102.185 32.3033 103.464 30.6081C104.551 29.1658 106.276 28.3869 107.872 27.5403C112.376 25.1498 116.494 21.6358 118.474 16.9365C117.354 17.5461 117.645 19.3649 118.633 20.1677C119.621 20.9705 120.968 21.1259 122.183 21.5083C126.613 22.9028 129.271 27.3212 131.402 31.4487C131.751 32.122 132.106 32.8332 132.102 33.5922C132.098 34.3512 131.751 35.0245 131.388 35.6699C130.337 37.5425 129.05 39.3413 128.572 41.4349C128.024 43.8254 128.601 46.3394 129.352 48.6841C130.149 51.1781 131.207 53.6921 133.119 55.481C135.032 57.2699 137.998 58.1583 140.351 57.0029C138.002 52.965 135.57 48.453 136.486 43.8752C136.928 41.684 138.118 39.6919 138.624 37.5126C139.588 33.3551 137.982 29.0782 136.406 25.11L131.697 13.2672C130.978 11.4564 130.159 9.52408 128.51 8.49816C127.394 7.80692 126.044 7.62763 124.737 7.50213C120.53 7.12762 116.171 7.25113 112.255 8.8169C105.119 11.6675 100.645 18.6955 97.095 25.5124C96.0312 27.5542 94.9814 29.7236 95.0253 32.0264C95.0492 33.2894 95.4018 34.5185 95.6886 35.7496C96.856 40.7616 96.9197 45.9549 96.9795 51.1004C97.0253 55.0487 96.8201 58.7699 95.093 62.3656C97.4596 62.8357 100.892 64.1046 103.235 63.1763C106.288 61.9691 108.169 58.25 108.553 55.1762Z" fill="#454B69"/>
        <g opacity="0.1">
            <path opacity="0.1" d="M96.9697 51.0167C96.9777 50.455 96.9777 49.8879 96.9697 49.3155C96.91 44.17 96.8462 38.9767 95.6789 33.9647C95.4181 32.9893 95.2146 31.9996 95.0693 31.0005C95.0283 31.3435 95.0104 31.6889 95.0155 32.0344C95.0394 33.2973 95.392 34.5264 95.6789 35.7575C96.8403 40.7397 96.912 45.9011 96.9697 51.0167Z" fill="black"/>
            <path opacity="0.1" d="M138.624 37.5125C138.885 36.3486 138.973 35.1523 138.883 33.9627C138.844 34.5543 138.757 35.1419 138.624 35.7197C138.118 37.9109 136.929 39.8851 136.486 42.0823C136.296 43.0515 136.242 44.0426 136.327 45.0266C136.359 44.6401 136.412 44.2557 136.486 43.8752C136.929 41.6779 138.118 39.6958 138.624 37.5125Z" fill="black"/>
            <path opacity="0.1" d="M131.947 32.6778C132.044 32.3948 132.096 32.0984 132.102 31.7993C132.102 31.0403 131.751 30.3292 131.403 29.6558C129.271 25.5283 126.622 21.1139 122.183 19.7154C120.968 19.333 119.624 19.1776 118.634 18.3748C118.379 18.1554 118.17 17.8873 118.021 17.5863C117.871 17.2852 117.783 16.9573 117.761 16.6218C115.602 20.586 111.892 23.6179 107.873 25.7474C106.279 26.594 104.552 27.3729 103.464 28.8152C102.442 30.1698 102.145 31.9328 102.323 33.638C102.423 32.5436 102.817 31.4967 103.464 30.608C104.552 29.1658 106.277 28.3869 107.873 27.5403C111.892 25.4108 115.602 22.3788 117.761 18.4146C117.783 18.7502 117.871 19.0781 118.021 19.3791C118.17 19.6801 118.379 19.9482 118.634 20.1676C119.63 20.9645 120.968 21.1258 122.183 21.5083C126.614 22.9027 129.271 27.3211 131.403 31.4487C131.619 31.8421 131.801 32.2533 131.947 32.6778V32.6778Z" fill="black"/>
            <path opacity="0.1" d="M133.12 53.6881C131.207 51.8952 130.154 49.3852 129.353 46.8912C128.872 45.4902 128.551 44.0394 128.397 42.5664C128.211 44.6123 128.719 46.7059 129.353 48.684C130.15 51.1781 131.207 53.6921 133.12 55.481C135.032 57.2698 137.998 58.1583 140.351 57.0029C140.068 56.5188 139.787 56.0268 139.508 55.5308C137.323 56.1463 134.813 55.2698 133.12 53.6881Z" fill="black"/>
            <path opacity="0.1" d="M108.553 53.3833C108.169 56.4571 106.288 60.1762 103.226 61.3914C101.101 62.234 98.075 61.2659 95.7662 60.73C95.5676 61.2892 95.3402 61.8378 95.085 62.3735C97.4515 62.8436 100.884 64.1126 103.226 63.1843C106.288 61.9691 108.169 58.2499 108.553 55.1762C108.632 54.4072 108.647 53.6329 108.597 52.8614C108.585 53.0347 108.567 53.21 108.553 53.3833Z" fill="black"/>
        </g>
        <path d="M132.691 102.775C129.614 102.286 126.49 101.344 123.438 101.978C121.669 102.344 120.052 103.225 118.582 104.289C119.39 104.936 120.335 105.514 120.849 106.414C121.168 107.037 121.407 107.698 121.562 108.38C121.884 109.575 122.209 110.795 122.259 112.038C122.309 113.281 122.06 114.575 121.319 115.578C125.199 115.96 128.96 115.004 132.745 114.07C133.178 113.994 133.59 113.827 133.954 113.581C134.552 113.111 134.727 112.275 134.731 111.512C134.731 110.149 134.349 108.82 133.96 107.514C133.498 105.946 133.155 104.332 132.691 102.775Z" fill="white"/>
        <path d="M153.472 69.1744C155 69.3736 156.185 70.6067 157.058 71.8737C159.506 75.3996 160.562 79.6746 161.737 83.8041C163.198 88.9397 164.916 93.9942 166.891 98.9677C167.316 100.116 167.833 101.229 168.437 102.294C168.929 103.117 169.526 103.908 169.743 104.842C170.269 107.101 168.407 109.225 166.464 110.484C165.429 111.182 164.299 111.726 163.108 112.101C161.948 112.448 160.739 112.579 159.538 112.711L148.48 113.906C143.39 114.46 138.255 115.014 133.163 114.48C132.842 113.364 133.472 112.575 133.426 111.414C133.394 110.583 133.028 109.811 132.701 109.046C132.099 107.683 131.7 106.239 131.52 104.761C131.462 104.217 131.442 103.659 131.235 103.153C131.028 102.647 130.583 102.193 130.04 102.157C133.028 101.86 135.297 101.296 138.285 100.998C139.394 100.886 140.548 100.761 141.494 100.171C142.667 99.4398 143.325 98.1211 143.847 96.8422C145.139 93.6748 145.972 90.1847 145.293 86.8301C144.735 84.079 143.179 81.5172 143.187 78.7104C143.187 77.0391 143.757 75.4195 144.43 73.8896C145.143 72.2721 146.074 70.6187 147.639 69.7979C149.205 68.9772 151.705 68.9354 153.472 69.1744Z" fill="#2F3759"/>
        <path opacity="0.08" d="M153.472 69.1744C155 69.3736 156.185 70.6067 157.058 71.8737C159.506 75.3996 160.562 79.6746 161.737 83.8041C163.198 88.9397 164.916 93.9942 166.891 98.9677C167.316 100.116 167.833 101.229 168.437 102.294C168.929 103.117 169.526 103.908 169.743 104.842C170.269 107.101 168.407 109.225 166.464 110.484C165.429 111.182 164.299 111.726 163.108 112.101C161.948 112.448 160.739 112.579 159.538 112.711L148.48 113.906C143.39 114.46 138.255 115.014 133.163 114.48C132.842 113.364 133.472 112.575 133.426 111.414C133.394 110.583 133.028 109.811 132.701 109.046C132.099 107.683 131.7 106.239 131.52 104.761C131.462 104.217 131.442 103.659 131.235 103.153C131.028 102.647 130.583 102.193 130.04 102.157C133.028 101.86 135.297 101.296 138.285 100.998C139.394 100.886 140.548 100.761 141.494 100.171C142.667 99.4398 143.325 98.1211 143.847 96.8422C145.139 93.6748 145.972 90.1847 145.293 86.8301C144.735 84.079 143.179 81.5172 143.187 78.7104C143.187 77.0391 143.757 75.4195 144.43 73.8896C145.143 72.2721 146.074 70.6187 147.639 69.7979C149.205 68.9772 151.705 68.9354 153.472 69.1744Z" fill="black"/>
        <path d="M84.2262 66.5867C84.9493 64.8696 85.6844 63.0966 85.7043 61.2341C85.7262 59.2201 84.9075 57.3077 84.282 55.3953C83.5084 53.0555 82.9934 50.638 82.7461 48.186C82.6948 47.9511 82.7302 47.7056 82.8457 47.4948C83.011 47.2617 83.3298 47.2139 83.6107 47.1522C84.9892 46.8374 86.031 45.7238 86.8916 44.6023C88.2267 42.8702 89.3539 40.9875 90.2502 38.9927C90.9096 37.5245 91.802 35.7336 93.4116 35.7197C92.7636 38.7634 91.9604 41.7721 91.0052 44.7338C92.6885 44.3035 94.2881 43.678 95.9714 43.2477C96.3009 43.1436 96.6461 43.0978 96.9913 43.1122C97.9993 43.2178 98.6168 44.5824 98.0312 45.4091C98.8539 46.3733 100.222 46.6322 101.298 47.2936C102.374 47.955 103.147 49.5924 102.191 50.4231C102.003 50.5845 101.766 50.698 101.631 50.9052C101.169 51.6184 102.3 52.4371 102.207 53.2817C102.131 53.973 101.244 54.2957 100.573 54.1124C99.9017 53.9292 99.3778 53.4272 98.7802 53.0586C98.1826 52.6901 97.4017 52.461 96.822 52.8435C96.6666 54.718 96.4993 56.6284 95.6885 58.3356C95.3917 58.9591 95.0112 59.5428 94.7722 60.1902C94.5435 60.8962 94.4017 61.6273 94.3498 62.3675L93.6267 68.9792C90.1765 69.6705 87.0828 68.6366 84.2262 66.5867Z" fill="#DDACBB"/>
        <path d="M83.3835 72.5131L82.7481 68.2122C82.6873 67.8621 82.6534 67.5078 82.6465 67.1525C82.6465 66.1564 83.0847 65.2062 83.509 64.2998C87.025 65.9413 90.8259 66.525 94.7045 66.527C95.2164 66.527 95.8001 66.4791 96.1188 66.0787C96.7782 66.8377 96.7981 68.0589 96.5172 69.023C96.2364 69.9872 95.6965 70.8557 95.3379 71.796C95.1567 72.2721 95.0092 72.792 94.6626 73.1585C94.1248 73.7382 93.2522 73.8378 92.4594 73.8338C91.6253 73.8286 90.7933 73.7493 89.9733 73.5968C87.8498 73.2024 85.5071 72.1326 83.3835 72.5131Z" fill="white"/>
        <path d="M96.4975 72.3378C93.7684 72.027 91.0572 71.5888 88.3639 71.023C87.0432 70.7461 85.7105 70.4374 84.3639 70.4911C83.4874 70.527 82.5451 70.7023 81.7742 70.268C82.5252 72.8239 82.571 75.5171 81.6726 78.0251C81.1407 79.5192 80.33 80.9116 79.9395 82.4495C79.1268 85.6667 80.2423 89.1747 79.2264 92.3341C79.1189 92.747 78.9077 93.1255 78.6128 93.4337C78.302 93.7186 77.8777 93.866 77.5909 94.1748C77.1686 94.629 77.1427 95.3123 77.1407 95.9318L77.1227 101.42C77.1108 104.914 77.1566 108.619 79.0013 111.579C81.1049 114.966 85.5332 116.721 89.3879 115.691C90.4128 115.429 91.3729 114.959 92.2086 114.311C93.5473 113.247 94.3999 111.709 95.2346 110.211C96.2306 108.418 97.2266 106.585 97.5474 104.567C97.7744 103.139 97.647 101.681 97.4836 100.245C96.5832 92.2763 94.629 84.3758 95.0493 76.3777C95.1122 74.9156 95.6172 73.5069 96.4975 72.3378V72.3378Z" fill="#2F3759"/>
        <path d="M107.904 105.406C106.52 105.486 105.125 105.565 103.747 105.406C102.751 105.287 101.779 105.042 100.79 104.874C98.0921 104.438 95.3314 104.592 92.6978 105.323C90.0642 106.055 87.6201 107.348 85.5333 109.113C84.7683 109.767 83.9954 110.769 84.4177 111.683C84.8719 112.667 86.2604 112.639 87.3301 112.456C86.1755 113.007 85.1555 113.805 84.342 114.793C84.0432 115.157 83.7603 115.59 83.8181 116.062C83.9396 117.048 85.2783 117.227 86.2683 117.141C85.9456 117.488 86.1628 118.102 86.5731 118.337C86.9835 118.572 87.4935 118.524 87.9576 118.438C88.9837 118.25 89.9752 117.907 90.8979 117.42C90.7106 117.908 91.0353 118.48 91.4955 118.723C91.9557 118.966 92.5155 118.948 93.0314 118.864C95.4657 118.466 97.4976 116.773 99.8721 116.107C103.669 115.046 107.641 116.739 111.587 116.858C112.823 116.896 114.089 116.771 115.215 116.261C116.596 115.633 117.709 114.456 119.167 114.038C120.787 113.576 122.645 114.107 124.127 113.309C125.205 112.729 124.233 108.261 123.958 107.4C123.454 105.826 122.948 104.783 121.269 104.623C117.02 104.207 112.185 105.159 107.904 105.406Z" fill="#DDACBB"/>
        <path d="M118.504 104.187C118.504 104.187 124.936 109.631 121.225 115.572L128.396 113.095V107.898C128.396 107.651 125.673 103.94 125.673 103.94L122.456 103.444L118.504 104.187Z" fill="white"/>
        <path d="M51.154 103.85H53.5664C54.8872 103.85 56.1539 104.375 57.0879 105.309C58.0218 106.243 58.5465 107.51 58.5465 108.83V116.223H46.1738V108.83C46.1738 108.176 46.3026 107.529 46.5529 106.925C46.8032 106.32 47.17 105.771 47.6325 105.309C48.0949 104.846 48.6439 104.48 49.2482 104.229C49.8524 103.979 50.5 103.85 51.154 103.85Z" fill="#3F3D56"/>
        <path opacity="0.1" d="M51.154 103.85H53.5664C54.8872 103.85 56.1539 104.375 57.0879 105.309C58.0218 106.243 58.5465 107.51 58.5465 108.83V116.223H46.1738V108.83C46.1738 108.176 46.3026 107.529 46.5529 106.925C46.8032 106.32 47.17 105.771 47.6325 105.309C48.0949 104.846 48.6439 104.48 49.2482 104.229C49.8524 103.979 50.5 103.85 51.154 103.85Z" fill="black"/>
        <path d="M51.8651 106.571C52.4119 106.571 52.8551 106.128 52.8551 105.581C52.8551 105.035 52.4119 104.591 51.8651 104.591C51.3183 104.591 50.875 105.035 50.875 105.581C50.875 106.128 51.3183 106.571 51.8651 106.571Z" fill="#3F3D56"/>
        <path d="M51.8651 105.334C52.4119 105.334 52.8551 104.891 52.8551 104.344C52.8551 103.798 52.4119 103.354 51.8651 103.354C51.3183 103.354 50.875 103.798 50.875 104.344C50.875 104.891 51.3183 105.334 51.8651 105.334Z" fill="#3F3D56"/>
        <path d="M51.8651 104.097C52.4119 104.097 52.8551 103.654 52.8551 103.107C52.8551 102.56 52.4119 102.117 51.8651 102.117C51.3183 102.117 50.875 102.56 50.875 103.107C50.875 103.654 51.3183 104.097 51.8651 104.097Z" fill="#3F3D56"/>
        <path d="M51.8651 102.86C52.4119 102.86 52.8551 102.417 52.8551 101.87C52.8551 101.323 52.4119 100.88 51.8651 100.88C51.3183 100.88 50.875 101.323 50.875 101.87C50.875 102.417 51.3183 102.86 51.8651 102.86Z" fill="#3F3D56"/>
        <path d="M51.8651 101.623C52.4119 101.623 52.8551 101.18 52.8551 100.633C52.8551 100.086 52.4119 99.643 51.8651 99.643C51.3183 99.643 50.875 100.086 50.875 100.633C50.875 101.18 51.3183 101.623 51.8651 101.623Z" fill="#3F3D56"/>
        <path d="M51.8651 100.386C52.4119 100.386 52.8551 99.9428 52.8551 99.396C52.8551 98.8492 52.4119 98.4059 51.8651 98.4059C51.3183 98.4059 50.875 98.8492 50.875 99.396C50.875 99.9428 51.3183 100.386 51.8651 100.386Z" fill="#3F3D56"/>
        <path d="M51.8651 99.147C52.4119 99.147 52.8551 98.7037 52.8551 98.1569C52.8551 97.6101 52.4119 97.1669 51.8651 97.1669C51.3183 97.1669 50.875 97.6101 50.875 98.1569C50.875 98.7037 51.3183 99.147 51.8651 99.147Z" fill="#3F3D56"/>
        <path d="M53.3514 99.643C53.8982 99.643 54.3414 99.1997 54.3414 98.653C54.3414 98.1062 53.8982 97.6629 53.3514 97.6629C52.8046 97.6629 52.3613 98.1062 52.3613 98.653C52.3613 99.1997 52.8046 99.643 53.3514 99.643Z" fill="#3F3D56"/>
        <path d="M54.3416 99.147C54.8884 99.147 55.3317 98.7037 55.3317 98.1569C55.3317 97.6101 54.8884 97.1669 54.3416 97.1669C53.7948 97.1669 53.3516 97.6101 53.3516 98.1569C53.3516 98.7037 53.7948 99.147 54.3416 99.147Z" fill="#3F3D56"/>
        <path d="M55.3318 98.653C55.8786 98.653 56.3219 98.2097 56.3219 97.6629C56.3219 97.1161 55.8786 96.6729 55.3318 96.6729C54.7851 96.6729 54.3418 97.1161 54.3418 97.6629C54.3418 98.2097 54.7851 98.653 55.3318 98.653Z" fill="#3F3D56"/>
        <path d="M51.8651 97.9099C52.4119 97.9099 52.8551 97.4667 52.8551 96.9199C52.8551 96.3731 52.4119 95.9298 51.8651 95.9298C51.3183 95.9298 50.875 96.3731 50.875 96.9199C50.875 97.4667 51.3183 97.9099 51.8651 97.9099Z" fill="#3F3D56"/>
        <path d="M51.8651 96.6728C52.4119 96.6728 52.8551 96.2296 52.8551 95.6828C52.8551 95.136 52.4119 94.6927 51.8651 94.6927C51.3183 94.6927 50.875 95.136 50.875 95.6828C50.875 96.2296 51.3183 96.6728 51.8651 96.6728Z" fill="#3F3D56"/>
        <path d="M51.8651 95.4358C52.4119 95.4358 52.8551 94.9926 52.8551 94.4458C52.8551 93.899 52.4119 93.4557 51.8651 93.4557C51.3183 93.4557 50.875 93.899 50.875 94.4458C50.875 94.9926 51.3183 95.4358 51.8651 95.4358Z" fill="#3F3D56"/>
        <path d="M51.8651 94.1987C52.4119 94.1987 52.8551 93.7554 52.8551 93.2086C52.8551 92.6619 52.4119 92.2186 51.8651 92.2186C51.3183 92.2186 50.875 92.6619 50.875 93.2086C50.875 93.7554 51.3183 94.1987 51.8651 94.1987Z" fill="#3F3D56"/>
        <path d="M55.977 90.0154C55.73 90.0513 55.483 90.0772 55.236 90.0931C55.4656 89.8927 55.6788 89.6742 55.8734 89.4397C55.7363 89.0237 55.5346 88.6318 55.2758 88.2783C55.0304 88.4162 54.7591 88.5016 54.479 88.5293C54.234 88.5652 53.9869 88.5911 53.7399 88.609C54.0646 88.3441 54.3674 87.9457 54.6862 87.613C53.972 86.9657 53.0572 86.5836 52.0948 86.5305C51.1325 86.4774 50.1812 86.7567 49.4002 87.3215C48.6192 87.8863 48.0561 88.7023 47.8052 89.6329C47.5542 90.5634 47.6307 91.552 48.0217 92.4329C48.4128 93.3138 49.0947 94.0335 49.9532 94.4715C50.8117 94.9095 51.7947 95.0391 52.7375 94.8387C53.6802 94.6383 54.5254 94.12 55.1315 93.3706C55.7376 92.6213 56.0678 91.6864 56.0667 90.7226C56.0667 90.4801 56.0454 90.2382 56.0029 89.9995L55.977 90.0154Z" fill="#2F3759"/>
        <path d="M59.2779 94.9338C59.0255 95.0891 58.7405 95.1839 58.4453 95.2107C58.2002 95.2465 57.9532 95.2744 57.7062 95.2904C57.9687 95.0549 58.2138 94.8005 58.4393 94.5294C57.8424 94.3738 57.2089 94.4464 56.6626 94.733C56.1164 95.0196 55.6967 95.4997 55.4856 96.0793C55.2745 96.6589 55.2871 97.2965 55.5211 97.8672C55.7551 98.438 56.1935 98.901 56.7507 99.1657C57.3079 99.4304 57.9438 99.4778 58.5341 99.2986C59.1243 99.1193 59.6265 98.7264 59.9425 98.1966C60.2584 97.6668 60.3654 97.0382 60.2425 96.4336C60.1196 95.8291 59.7757 95.2922 59.2779 94.9278V94.9338Z" fill="#2F3759"/>
        <path d="M50.3812 99.643C50.928 99.643 51.3712 99.1997 51.3712 98.653C51.3712 98.1062 50.928 97.6629 50.3812 97.6629C49.8344 97.6629 49.3911 98.1062 49.3911 98.653C49.3911 99.1997 49.8344 99.643 50.3812 99.643Z" fill="#3F3D56"/>
        <path d="M49.3914 99.147C49.9382 99.147 50.3815 98.7037 50.3815 98.1569C50.3815 97.6101 49.9382 97.1669 49.3914 97.1669C48.8446 97.1669 48.4014 97.6101 48.4014 98.1569C48.4014 98.7037 48.8446 99.147 49.3914 99.147Z" fill="#3F3D56"/>
        <path d="M48.4012 98.653C48.948 98.653 49.3912 98.2097 49.3912 97.6629C49.3912 97.1161 48.948 96.6729 48.4012 96.6729C47.8544 96.6729 47.4111 97.1161 47.4111 97.6629C47.4111 98.2097 47.8544 98.653 48.4012 98.653Z" fill="#3F3D56"/>
        <path d="M44.4547 94.9338C44.7072 95.0891 44.9922 95.1839 45.2874 95.2107C45.5324 95.2465 45.7794 95.2744 46.0264 95.2904C45.7634 95.0554 45.5183 94.801 45.2934 94.5294C45.8903 94.3738 46.5238 94.4464 47.07 94.733C47.6163 95.0196 48.036 95.4997 48.2471 96.0793C48.4582 96.6589 48.4455 97.2965 48.2115 97.8672C47.9776 98.438 47.5391 98.901 46.9819 99.1657C46.4247 99.4304 45.7888 99.4778 45.1986 99.2986C44.6083 99.1193 44.1061 98.7264 43.7902 98.1966C43.4742 97.6668 43.3672 97.0382 43.4901 96.4336C43.613 95.8291 43.957 95.2922 44.4547 94.9278V94.9338Z" fill="#2F3759"/>
        <path d="M51.1541 104.583H53.5665C54.8873 104.583 56.1541 105.108 57.088 106.042C58.022 106.976 58.5467 108.243 58.5467 109.563V116.111C58.5467 116.335 58.4577 116.55 58.2993 116.709C58.1409 116.867 57.9261 116.956 57.702 116.956H47.0126C46.7886 116.956 46.5738 116.867 46.4154 116.709C46.257 116.55 46.168 116.335 46.168 116.111V109.563C46.168 108.909 46.297 108.261 46.5476 107.656C46.7983 107.052 47.1657 106.502 47.6287 106.04C48.0918 105.577 48.6415 105.211 49.2465 104.961C49.8514 104.711 50.4996 104.583 51.1541 104.583V104.583Z" fill="#3F3D56"/>
        <g opacity="0.1">
            <path opacity="0.1" d="M56.0448 90.2863C55.9446 90.3934 55.8382 90.4945 55.7261 90.5891C55.8396 90.5891 55.9512 90.5712 56.0647 90.5592C56.0608 90.4676 56.0548 90.376 56.0448 90.2863Z" fill="black"/>
            <path opacity="0.1" d="M54.2402 89.103C54.4892 89.0871 54.7343 89.0612 54.9813 89.0253C55.2029 88.9973 55.4195 88.9383 55.6247 88.85C55.524 88.6509 55.4081 88.4597 55.2781 88.2783C55.1542 88.3537 55.02 88.4108 54.8797 88.4476C54.6843 88.6828 54.4705 88.902 54.2402 89.103Z" fill="black"/>
            <path opacity="0.1" d="M48.1541 91.2285C48.1527 90.4733 48.3549 89.7316 48.7395 89.0817C49.1242 88.4317 49.677 87.8975 50.3397 87.5353C51.0025 87.1732 51.7506 86.9964 52.5054 87.0238C53.2601 87.0511 53.9935 87.2815 54.6283 87.6906L54.6921 87.6229C54.2778 87.2543 53.7946 86.9713 53.2705 86.7902C52.7463 86.6091 52.1915 86.5336 51.638 86.5679C51.0845 86.6022 50.5433 86.7457 50.0455 86.9902C49.5477 87.2346 49.1032 87.5751 48.7376 87.9921C48.372 88.4091 48.0925 88.8943 47.9153 89.4197C47.738 89.9452 47.6665 90.5006 47.7049 91.0538C47.7432 91.607 47.8907 92.1472 48.1387 92.6432C48.3868 93.1392 48.7305 93.5812 49.1502 93.9437C48.5059 93.1859 48.1528 92.2232 48.1541 91.2285Z" fill="black"/>
        </g>
        <g opacity="0.1">
            <path opacity="0.1" d="M57.7061 95.7844C57.9531 95.7685 58.2001 95.7426 58.4451 95.7067C58.7405 95.6792 59.0255 95.5838 59.2778 95.4278C59.5575 95.6338 59.7907 95.8963 59.9623 96.1984C60.1339 96.5004 60.2401 96.8351 60.2738 97.1809C60.2835 97.0942 60.2882 97.0071 60.2878 96.9199C60.2897 96.533 60.2005 96.1511 60.0275 95.805C59.8544 95.4589 59.6024 95.1584 59.2918 94.9278C59.0393 95.0831 58.7543 95.1779 58.4591 95.2047L58.2599 95.2306C58.0899 95.4292 57.9047 95.6144 57.7061 95.7844Z" fill="black"/>
            <path opacity="0.1" d="M57.8057 94.9398C57.8883 94.9407 57.9708 94.9467 58.0527 94.9577C58.1822 94.8202 58.3097 94.6728 58.4392 94.5294C58.0729 94.4316 57.6891 94.4194 57.3174 94.4937C56.9457 94.568 56.5961 94.7269 56.2956 94.958C55.9952 95.1891 55.7519 95.4863 55.5847 95.8265C55.4176 96.1667 55.3309 96.5408 55.3315 96.9199C55.3315 97.0035 55.3315 97.0852 55.3435 97.1669C55.4047 96.5565 55.6906 95.9906 56.1456 95.579C56.6006 95.1675 57.1922 94.9397 57.8057 94.9398V94.9398Z" fill="black"/>
        </g>
        <g opacity="0.1">
            <path opacity="0.1" d="M46.0266 95.7844C45.7795 95.7685 45.5325 95.7426 45.2875 95.7067C44.9921 95.6792 44.7072 95.5838 44.4548 95.4278C44.1751 95.6338 43.9419 95.8963 43.7703 96.1984C43.5987 96.5004 43.4926 96.8351 43.4588 97.1809C43.4491 97.0942 43.4445 97.0071 43.4449 96.9199C43.443 96.533 43.5322 96.1511 43.7052 95.805C43.8782 95.4589 44.1302 95.1584 44.4409 94.9278C44.6934 95.0831 44.9784 95.1779 45.2736 95.2047L45.4728 95.2306C45.6417 95.4302 45.8269 95.6155 46.0266 95.7844V95.7844Z" fill="black"/>
            <path opacity="0.1" d="M45.9269 94.9398C45.8436 94.9408 45.7605 94.9468 45.6779 94.9577C45.5504 94.8202 45.4229 94.6728 45.2935 94.5294C45.6597 94.4316 46.0435 94.4194 46.4152 94.4937C46.7869 94.568 47.1365 94.7269 47.437 94.958C47.7375 95.1891 47.9807 95.4863 48.1479 95.8265C48.3151 96.1667 48.4017 96.5408 48.4011 96.9199C48.4011 97.0035 48.4011 97.0852 48.3891 97.1669C48.3279 96.5565 48.042 95.9906 47.587 95.579C47.1321 95.1675 46.5404 94.9397 45.9269 94.9398V94.9398Z" fill="black"/>
        </g>
        <path d="M39.2135 119.351H19.751C19.5318 119.351 19.3215 119.263 19.1665 119.108C19.0114 118.953 18.9243 118.743 18.9243 118.524V109.312C18.9243 109.173 18.9595 109.036 19.0268 108.914C19.0941 108.791 19.1913 108.688 19.3092 108.614C19.4271 108.539 19.5619 108.495 19.7012 108.487C19.8405 108.479 19.9796 108.506 20.1056 108.565C25.6973 111.219 31.7213 112.129 38.831 108.607C38.957 108.545 39.0968 108.516 39.2372 108.523C39.3775 108.529 39.5139 108.572 39.6334 108.646C39.7529 108.72 39.8517 108.823 39.9204 108.945C39.9891 109.068 40.0255 109.206 40.0262 109.346V118.51C40.0281 118.618 40.0085 118.726 39.9687 118.827C39.9288 118.928 39.8695 119.021 39.794 119.099C39.7185 119.177 39.6284 119.239 39.5288 119.282C39.4292 119.326 39.3221 119.349 39.2135 119.351V119.351Z" fill="#2F3759"/>
        <path opacity="0.1" d="M39.2135 119.351H19.751C19.5318 119.351 19.3215 119.263 19.1665 119.108C19.0114 118.953 18.9243 118.743 18.9243 118.524V109.312C18.9243 109.173 18.9595 109.036 19.0268 108.914C19.0941 108.791 19.1913 108.688 19.3092 108.614C19.4271 108.539 19.5619 108.495 19.7012 108.487C19.8405 108.479 19.9796 108.506 20.1056 108.565C25.6973 111.219 31.7213 112.129 38.831 108.607C38.957 108.545 39.0968 108.516 39.2372 108.523C39.3775 108.529 39.5139 108.572 39.6334 108.646C39.7529 108.72 39.8517 108.823 39.9204 108.945C39.9891 109.068 40.0255 109.206 40.0262 109.346V118.51C40.0281 118.618 40.0085 118.726 39.9687 118.827C39.9288 118.928 39.8695 119.021 39.794 119.099C39.7185 119.177 39.6284 119.239 39.5288 119.282C39.4292 119.326 39.3221 119.349 39.2135 119.351V119.351Z" fill="black"/>
        <path d="M29.3472 112.348C29.9831 112.348 30.4986 111.673 30.4986 110.84C30.4986 110.008 29.9831 109.332 29.3472 109.332C28.7113 109.332 28.1958 110.008 28.1958 110.84C28.1958 111.673 28.7113 112.348 29.3472 112.348Z" fill="#3F3D56"/>
        <path d="M29.3472 110.506C29.9831 110.506 30.4986 109.831 30.4986 108.998C30.4986 108.165 29.9831 107.49 29.3472 107.49C28.7113 107.49 28.1958 108.165 28.1958 108.998C28.1958 109.831 28.7113 110.506 29.3472 110.506Z" fill="#3F3D56"/>
        <path d="M29.3472 108.661C29.9831 108.661 30.4986 107.986 30.4986 107.153C30.4986 106.32 29.9831 105.645 29.3472 105.645C28.7113 105.645 28.1958 106.32 28.1958 107.153C28.1958 107.986 28.7113 108.661 29.3472 108.661Z" fill="#3F3D56"/>
        <path d="M29.3472 106.818C29.9831 106.818 30.4986 106.143 30.4986 105.31C30.4986 104.478 29.9831 103.802 29.3472 103.802C28.7113 103.802 28.1958 104.478 28.1958 105.31C28.1958 106.143 28.7113 106.818 29.3472 106.818Z" fill="#3F3D56"/>
        <path d="M29.3472 104.974C29.9831 104.974 30.4986 104.299 30.4986 103.466C30.4986 102.633 29.9831 101.958 29.3472 101.958C28.7113 101.958 28.1958 102.633 28.1958 103.466C28.1958 104.299 28.7113 104.974 29.3472 104.974Z" fill="#3F3D56"/>
        <path d="M29.3472 103.129C29.9831 103.129 30.4986 102.454 30.4986 101.621C30.4986 100.788 29.9831 100.113 29.3472 100.113C28.7113 100.113 28.1958 100.788 28.1958 101.621C28.1958 102.454 28.7113 103.129 29.3472 103.129Z" fill="#3F3D56"/>
        <path d="M29.3472 101.287C29.9831 101.287 30.4986 100.611 30.4986 99.7785C30.4986 98.9457 29.9831 98.2705 29.3472 98.2705C28.7113 98.2705 28.1958 98.9457 28.1958 99.7785C28.1958 100.611 28.7113 101.287 29.3472 101.287Z" fill="#3F3D56"/>
        <path d="M33.666 87.1607C33.8223 86.9597 33.9654 86.7488 34.0943 86.5292L31.0664 86.0312L34.3413 86.0551C34.6573 85.3706 34.8297 84.6285 34.8478 83.8748C34.866 83.121 34.7295 82.3716 34.4469 81.6726L30.0544 83.9515L34.1062 80.9634C33.7269 80.3073 33.2164 79.7363 32.6067 79.2861C31.997 78.8359 31.3011 78.516 30.5624 78.3465C29.8237 78.1769 29.058 78.1613 28.313 78.3007C27.568 78.44 26.8596 78.7312 26.2321 79.1562C25.6046 79.5813 25.0713 80.131 24.6655 80.7711C24.2597 81.4112 23.9901 82.1281 23.8734 82.8769C23.7567 83.6258 23.7955 84.3907 23.9874 85.1239C24.1793 85.8572 24.5201 86.543 24.9886 87.1388C24.7424 87.45 24.5313 87.7874 24.3591 88.1448L28.2874 90.2086L24.1041 88.7942C23.8109 89.6636 23.7388 90.5923 23.8942 91.4965C24.0497 92.4007 24.4278 93.252 24.9946 93.9736C24.3541 94.7878 23.9557 95.7658 23.8449 96.7958C23.7341 97.8257 23.9154 98.8661 24.368 99.7979C24.8206 100.73 25.5262 101.515 26.4043 102.065C27.2823 102.615 28.2974 102.906 29.3333 102.906C30.3692 102.906 31.3842 102.615 32.2622 102.065C33.1403 101.515 33.846 100.73 34.2986 99.7979C34.7511 98.8661 34.9324 97.8257 34.8216 96.7958C34.7108 95.7658 34.3124 94.7878 33.672 93.9736C34.4371 93.0007 34.8531 91.7989 34.8531 90.5612C34.8531 89.3235 34.4371 88.1216 33.672 87.1488L33.666 87.1607Z" fill="#2F3759"/>
        <path opacity="0.1" d="M23.8032 90.5732C23.8014 91.8112 24.2177 93.0136 24.9845 93.9856C24.3441 94.7998 23.9457 95.7778 23.8349 96.8077C23.7241 97.8377 23.9053 98.8781 24.3579 99.8099C24.8105 100.742 25.5162 101.527 26.3943 102.077C27.2723 102.627 28.2873 102.918 29.3232 102.918C30.3591 102.918 31.3742 102.627 32.2522 102.077C33.1303 101.527 33.8359 100.742 34.2885 99.8099C34.7411 98.8781 34.9224 97.8377 34.8116 96.8077C34.7008 95.7778 34.3024 94.7998 33.6619 93.9856C34.401 93.0473 23.8032 89.9536 23.8032 90.5732Z" fill="black"/>
        <path d="M39.2135 119.839H19.751C19.5318 119.839 19.3215 119.751 19.1665 119.596C19.0114 119.441 18.9243 119.231 18.9243 119.012V109.312C18.9243 109.173 18.9595 109.036 19.0268 108.914C19.0941 108.791 19.1913 108.688 19.3092 108.614C19.4271 108.539 19.5619 108.495 19.7012 108.487C19.8405 108.479 19.9796 108.506 20.1056 108.565C25.6973 111.219 30.1317 114.313 38.831 108.607C39.347 108.269 40.0262 108.731 40.0262 109.346V119.008C40.0273 119.225 39.9426 119.435 39.7905 119.59C39.6383 119.746 39.431 119.835 39.2135 119.839Z" fill="#2F3759"/>
        <path d="M183.634 117.095L154.921 120.894L153.484 121.084L139.446 113.585V111.83L183.316 107.046L183.634 117.095Z" fill="#9C9CA1"/>
        <path d="M147.582 114.382L178.688 110.715L178.369 116.458L154.14 118.235L147.582 114.382Z" fill="#939498"/>
        <path opacity="0.4" d="M154.921 119.008V120.892L153.484 121.092L139.444 113.585V111.83L152.845 119.002C152.845 119.002 154.602 119.167 154.921 119.008Z" fill="black"/>
        <path d="M160.433 89.0971L153.986 118.988C153.921 119.287 153.929 119.598 154.01 119.893C154.09 120.189 154.24 120.461 154.448 120.686C154.655 120.911 154.914 121.083 155.202 121.187C155.49 121.292 155.798 121.325 156.102 121.285L196.885 115.886C197.241 115.84 197.576 115.694 197.852 115.465C198.128 115.237 198.334 114.936 198.447 114.596L207.246 88.0612C207.343 87.7668 207.368 87.4531 207.317 87.1473C207.266 86.8415 207.141 86.5526 206.954 86.3056C206.766 86.0586 206.522 85.8609 206.241 85.7294C205.96 85.598 205.652 85.5368 205.342 85.5512L162.21 87.599C161.79 87.6189 161.389 87.7764 161.067 88.0471C160.746 88.3179 160.523 88.6869 160.433 89.0971V89.0971Z" fill="#3F3D56"/>
        <path d="M182.842 100.124C182.942 99.1724 182.528 98.3486 181.916 98.2844C181.304 98.2201 180.728 98.9396 180.627 99.8916C180.527 100.843 180.942 101.667 181.554 101.732C182.165 101.796 182.742 101.076 182.842 100.124Z" fill="white"/>
    </g>
    <defs>
        <clipPath id="clip0">
            <rect width="229.087" height="125" fill="white"/>
        </clipPath>
    </defs>
</svg>
